<?xml version="1.0" encoding="utf-8"?>
<!-- Generator: Adobe Illustrator 24.0.2, SVG Export Plug-In . SVG Version: 6.00 Build 0)  -->
<svg version="1.1" id="Capa_1" xmlns="http://www.w3.org/2000/svg" xmlns:xlink="http://www.w3.org/1999/xlink" x="0px" y="0px"
	 viewBox="0 0 750 500" style="enable-background:new 0 0 750 500;" xml:space="preserve">
<style type="text/css">
	.st0{fill:#E0E0E0;}
	.st1{fill:#EBEBEB;}
	.st2{fill:#FFFFFF;}
	.st3{fill:#F5F5F5;}
	.st4{fill:#263238;}
	.st5{fill:#191F49;}
	.st6{fill:#215081;}
	.st7{opacity:0.2;}
	.st8{fill:#FF725E;}
	.st9{opacity:0.4;}
	.st10{fill:#455A64;}
	.st11{fill:#18287C;}
	.st12{opacity:0.6;}
</style>
<g id="freepik--background-complete--inject-6">
	<path class="st0" d="M165.6,152.3l1.2,2c1.3,2.2,3.2,4,5.5,5.1l2,1l-2,1.2c-2.2,1.3-4,3.2-5.1,5.5l-1,2.1l-1.2-2
		c-1.3-2.2-3.3-4-5.6-5.1l-2.1-1l2-1.2c2.2-1.3,4-3.2,5.1-5.5L165.6,152.3z"/>
	<path class="st0" d="M644.1,268.7l1.2,2c1.3,2.2,3.2,4,5.5,5.1l2,1l-2,1.2c-2.2,1.3-4,3.2-5.1,5.5l-1,2l-1.2-2
		c-1.3-2.2-3.2-4-5.5-5.1l-2-1l2-1.2c2.2-1.3,4-3.2,5.1-5.5L644.1,268.7z"/>
	<path class="st0" d="M526.8,306.6l0.7,1.1c0.8,1.3,1.9,2.3,3.2,3l1.2,0.6l-1.2,0.7c-1.3,0.8-2.3,1.9-3,3.3l-0.6,1.2l-0.7-1.1
		c-0.8-1.3-1.9-2.3-3.3-3l-1.2-0.6l1.2-0.7c1.3-0.8,2.3-1.9,3-3.2L526.8,306.6z"/>
	<path class="st0" d="M368.6,196.2l0.7,1.1c0.8,1.3,1.9,2.3,3.2,3l1.2,0.6l-1.1,0.7c-1.3,0.8-2.3,1.9-3,3.3l-0.6,1.2l-0.7-1.1
		c-0.8-1.3-1.9-2.3-3.3-3l-1.2-0.6l1.1-0.7c1.3-0.8,2.3-1.9,3-3.3L368.6,196.2z"/>
	<path class="st0" d="M647.3,301.6l0.6,0.2c0.6,0.3,1.3,0.3,2,0.2l0.6-0.1l-0.2,0.6c-0.3,0.6-0.3,1.3-0.2,2l0.1,0.6l-0.6-0.2
		c-0.6-0.3-1.3-0.3-2-0.2l-0.6,0.1l0.2-0.6c0.3-0.6,0.3-1.3,0.2-2L647.3,301.6z"/>
	<path class="st0" d="M665,248.3l0.6,0.2c0.6,0.3,1.3,0.3,2,0.2l0.6-0.1l-0.2,0.6c-0.3,0.6-0.3,1.3-0.2,2l0.1,0.6l-0.6-0.2
		c-0.6-0.3-1.3-0.3-2-0.2l-0.6,0.1l0.2-0.6c0.3-0.6,0.3-1.3,0.2-2L665,248.3z"/>
	<path class="st0" d="M530.5,234.9l0.6,0.2c0.6,0.3,1.3,0.3,2,0.2l0.6-0.1l-0.2,0.6c-0.3,0.6-0.3,1.3-0.2,2l0.1,0.6l-0.6-0.2
		c-0.6-0.3-1.3-0.3-2-0.2l-0.6,0.1l0.2-0.6c0.3-0.6,0.3-1.3,0.2-2L530.5,234.9z"/>
	<path class="st0" d="M162.2,99.7l0.6,0.2c0.6,0.3,1.3,0.3,2,0.2l0.6-0.1l-0.2,0.6c-0.3,0.6-0.3,1.3-0.2,2l0.1,0.6l-0.6-0.2
		c-0.6-0.3-1.3-0.3-2-0.2l-0.6,0.1l0.2-0.6c0.3-0.6,0.3-1.3,0.2-2L162.2,99.7z"/>
	<path class="st0" d="M249.4,77.4l0.6,0.2c0.6,0.3,1.3,0.3,2,0.2l0.6-0.1l-0.2,0.6c-0.3,0.6-0.3,1.3-0.2,2l0.1,0.6l-0.6-0.2
		c-0.6-0.3-1.3-0.3-2-0.2l-0.6,0.1l0.2-0.6c0.3-0.6,0.3-1.3,0.2-2L249.4,77.4z"/>
	<path class="st0" d="M373.5,279.5l0.6,0.2c0.6,0.3,1.3,0.3,2,0.2l0.6-0.1l-0.2,0.6c-0.3,0.6-0.3,1.3-0.2,2l0.1,0.6l-0.6-0.2
		c-0.6-0.3-1.3-0.3-2-0.2l-0.6,0.1l0.2-0.6c0.3-0.6,0.3-1.3,0.2-2L373.5,279.5z"/>
	<path class="st0" d="M340.1,220.3l0.6,0.2c0.6,0.3,1.3,0.3,2,0.2l0.6-0.1l-0.2,0.6c-0.3,0.6-0.3,1.3-0.2,2l0.1,0.6l-0.6-0.2
		c-0.6-0.3-1.3-0.3-2-0.2l-0.6,0.1l0.2-0.6c0.3-0.6,0.3-1.3,0.2-2L340.1,220.3z"/>
	<path class="st0" d="M502.7,102.1l0.6,0.2c0.6,0.3,1.3,0.3,2,0.2l0.6-0.1l-0.2,0.6c-0.3,0.6-0.3,1.3-0.2,2l0.1,0.6l-0.6-0.2
		c-0.6-0.3-1.3-0.3-2-0.2l-0.6,0.1l0.2-0.6c0.3-0.6,0.3-1.3,0.2-2L502.7,102.1z"/>
	<path class="st0" d="M493.4,192.4l0.6,0.2c0.6,0.3,1.3,0.3,2,0.2l0.6-0.1l-0.2,0.6c-0.3,0.6-0.3,1.3-0.2,2l0.1,0.6l-0.6-0.2
		c-0.6-0.3-1.3-0.3-2-0.2l-0.6,0.1l0.2-0.6c0.3-0.6,0.3-1.3,0.2-2L493.4,192.4z"/>
	<circle class="st1" cx="273.5" cy="167.6" r="49.7"/>
	<path class="st2" d="M267,183.1c0,4.5-3.6,8.1-8.1,8.1s-8.1-3.6-8.1-8.1c0-4.5,3.6-8.1,8.1-8.1C263.4,175,267,178.7,267,183.1
		C267,183.1,267,183.1,267,183.1z"/>
	<path class="st2" d="M255.5,159.8c0,2.6-2.1,4.7-4.7,4.7s-4.7-2.1-4.7-4.7s2.1-4.7,4.7-4.7S255.5,157.2,255.5,159.8L255.5,159.8z"
		/>
	<path class="st0" d="M225.3,179.7c0.2,0.9-42.5,41.9-31.5,50.6s57.4-13.7,96.9-45.6s75.6-70.7,65.7-80.9s-59.3,20.1-59.3,20.1
		l5.9,3.8c0,0,29.9-19.2,39.3-11.7s-17.5,36.5-55.5,64.2s-74.7,47.2-80.4,39.6s21.2-32.9,21.2-32.9L225.3,179.7z"/>
	<path class="st2" d="M246.1,132.6c0.4,0.5-3,3.3-6.8,9.1c-10.3,15-10.7,34.8-1,50.3c3.6,5.9,6.8,8.9,6.4,9.3
		c-0.3,0.4-4.3-2-8.7-7.8c-2.6-3.4-4.6-7.3-6-11.3c-3.7-10.1-3.4-21.1,0.6-31c1.6-4,3.8-7.7,6.5-11.1
		C241.8,134.4,245.8,132.3,246.1,132.6z"/>
	<path class="st0" d="M179.7,111.4c0.2-9.5,8.1-17.1,17.7-16.8c9.5,0.2,17.1,8.1,16.8,17.7c-0.2,9.5-8.1,17.1-17.7,16.8c0,0,0,0,0,0
		C187,128.8,179.5,120.9,179.7,111.4z"/>
	<path class="st3" d="M202.6,105.2c0-1.6,1.3-2.8,2.9-2.8c1.6,0,2.8,1.3,2.8,2.9c0,1.6-1.3,2.8-2.9,2.8c0,0,0,0,0,0
		C203.8,108,202.6,106.8,202.6,105.2z"/>
	<path class="st3" d="M208.2,111.8c0-0.9,0.8-1.6,1.7-1.6s1.6,0.8,1.6,1.7c0,0.9-0.8,1.6-1.7,1.6c0,0,0,0,0,0
		C208.9,113.4,208.2,112.7,208.2,111.8C208.2,111.8,208.2,111.8,208.2,111.8z"/>
	<path class="st3" d="M206,116.8c0.3,0,0.6,0.3,0.5,0.7c0,0.3-0.3,0.5-0.5,0.5c-0.3,0-0.6-0.3-0.6-0.6
		C205.4,117.1,205.7,116.8,206,116.8z"/>
	<path class="st0" d="M709.9,461.8c0,0,0-0.4,0-1.3s0-2.1,0-3.7c0-3.2,0-8,0-14.1c0-12.3,0-30.1-0.1-52l0.1,0.1l-31.6-26.6l0.1,0
		H560.5l-162.9-0.1l-49.4-0.1h-13.4h-3.5h-1.2h1.2h3.5l13.4,0l49.4-0.1l162.9-0.1h117.9h0.1l0.1,0l31.4,26.5l0.1,0v0.1
		c0,22-0.1,39.8-0.1,52c0,6.1,0,10.9,0,14.1c0,1.6,0,2.8,0,3.7S709.9,461.8,709.9,461.8z"/>
	<path class="st0" d="M551.5,462c-0.1,0-0.3-21.5-0.3-48s0.1-48,0.3-48s0.3,21.5,0.3,48S551.7,462,551.5,462z"/>
	<path class="st0" d="M559.9,380.7c0,0-0.2,0.1-0.5,0.4c-0.5,0.3-0.8,0.8-1,1.3c-0.3,0.7-0.2,1.6,0.1,2.3c0.8,1.2,2.5,1.4,3.6,0.6
		c0.4-0.3,0.7-0.7,0.9-1.2c0.1-0.8-0.1-1.6-0.6-2.2c-0.3-0.5-0.8-0.8-1.3-1c-0.4-0.1-0.6-0.1-0.6-0.2c0.2-0.1,0.4-0.1,0.7,0
		c0.6,0.1,1.1,0.5,1.5,0.9c0.6,0.7,0.9,1.7,0.7,2.6c-0.4,1.6-2.1,2.5-3.7,2.1c-0.7-0.2-1.3-0.7-1.7-1.3c-0.4-0.8-0.4-1.8,0-2.7
		c0.2-0.6,0.7-1,1.2-1.3C559.4,380.7,559.6,380.7,559.9,380.7z"/>
	<path class="st0" d="M562.5,432c-0.6,0.1-1.3,0.4-1.7,0.8c-0.5,0.5-0.7,1.2-0.7,1.8c0.2,1.2,1.4,2,2.6,1.8c0.4-0.1,0.8-0.3,1.1-0.6
		c0.4-0.5,0.6-1.2,0.5-1.9c-0.1-0.6-0.4-1.2-0.9-1.7c0,0,0.2,0,0.5,0.3c0.4,0.4,0.7,0.8,0.8,1.4c0.2,0.8,0,1.6-0.5,2.3
		c-1,1.1-2.8,1.1-3.8,0c-0.4-0.4-0.7-0.9-0.8-1.5c0-0.8,0.3-1.6,0.9-2.1c0.4-0.4,0.9-0.6,1.4-0.6C562.3,431.9,562.5,432,562.5,432z"
		/>
	<path class="st0" d="M698.9,394.6c-0.6,0-1.2,0.3-1.7,0.6c-0.5,0.4-0.8,1-0.9,1.7c0.1,1.2,1.1,2.2,2.4,2.1c0.4,0,0.7-0.1,1-0.3
		c0.5-0.4,0.8-1,0.9-1.7c0-0.6-0.1-1.2-0.5-1.8c0,0,0.2,0.1,0.4,0.4c0.3,0.4,0.5,0.9,0.5,1.5c0,0.8-0.3,1.5-0.9,2
		c-1.2,0.9-2.8,0.6-3.7-0.6c-0.3-0.4-0.5-1-0.5-1.5c0.1-0.8,0.5-1.5,1.1-2c0.4-0.3,0.9-0.5,1.4-0.5
		C698.8,394.5,698.9,394.5,698.9,394.6z"/>
	<path class="st0" d="M67.3,204.3c0,0,0.1-0.2,0.2-0.6l0.5-1.7l2.1-6.5c1.9-5.7,4.6-13.8,7.9-23.9c6.7-20.2,15.9-48.1,26.6-78.8
		c1.3-3.8,2.7-7.6,4.1-11.3c0.6-1.9,1.3-3.7,1.9-5.6c0.6-1.8,0.8-3.7,0.8-5.6c-0.1-3.7-1.6-7.3-4-10.1c-1.2-1.4-2.6-2.5-4.1-3.4
		l-0.6-0.3l-0.6-0.3l-1.2-0.5c-0.8-0.3-1.7-0.5-2.5-0.7L97,54.7l-1.3-0.1c-0.8-0.1-1.7,0-2.6,0H78.3H60.9l-25.2-0.1l-6.9,0h-1.8
		h-0.6h0.6h1.8h6.9l25.2-0.1h17.4h14.8c0.9,0,1.7,0,2.6,0l1.3-0.2l1.3,0.2c0.9,0.2,1.7,0.4,2.6,0.7l1.2,0.5l0.6,0.3l0.6,0.3
		c1.6,0.9,3.1,2.1,4.3,3.5c2.5,2.9,4,6.6,4.2,10.4c0.1,2-0.2,3.9-0.8,5.8c-0.6,1.8-1.3,3.7-1.9,5.6c-1.3,3.7-2.7,7.5-4,11.3
		c-10.7,30.7-19.9,58.6-26.7,78.7c-3.4,10.1-6.1,18.2-8,23.9l-2.2,6.4c-0.3,0.7-0.4,1.3-0.6,1.7S67.3,204.3,67.3,204.3z"/>
	<path class="st0" d="M732.8,55.6h-0.6h-1.7h-6.7l-24.6,0.1h-4c-1.4,0-2.8,0-4.1,0.1c-9.7,0.7-17.5,8.2-18.7,17.8
		c-0.1,0.8-0.2,1.7-0.2,2.5v1.3c0,0.4,0.1,0.9,0.2,1.3l0.2,1.3l0.4,1.4l0.3,1.3l0.4,1.3c1.1,3.4,2.3,6.9,3.5,10.4l7.2,21.9
		c9.9,30.1,18.8,57.3,25.3,77c3.2,9.9,5.8,17.8,7.6,23.4c0.9,2.8,1.6,4.9,2,6.4c0.2,0.7,0.4,1.3,0.5,1.6s0.2,0.6,0.2,0.6
		s-0.1-0.2-0.2-0.6s-0.3-0.9-0.6-1.6c-0.5-1.5-1.2-3.6-2.1-6.3c-1.8-5.5-4.5-13.5-7.8-23.3c-6.5-19.7-15.5-46.9-25.5-76.9
		c-2.5-7.5-4.9-14.8-7.2-21.9c-1.1-3.6-2.3-7-3.4-10.4l-0.4-1.3l-0.3-1.3l-0.3-1.3l-0.2-1.3c0-0.4-0.1-0.9-0.2-1.3v-1.3
		c0-0.9,0-1.7,0.2-2.6c1.2-9.9,9.2-17.5,19.2-18.1c1.4-0.1,2.8-0.1,4.2-0.1h4l24.6,0.1h6.7h1.7C732.6,55.6,732.8,55.6,732.8,55.6z"
		/>
</g>
<g id="freepik--Floor--inject-6">
	<path class="st4" d="M728.2,460.9c0,0.1-158.1,0.3-353.2,0.3S21.8,461,21.8,460.9s158.1-0.3,353.2-0.3S728.2,460.7,728.2,460.9z"/>
</g>
<g id="freepik--Window--inject-6">
	<path class="st5" d="M560.6,205.8c0.2-0.5,0.4-1,0.7-1.5c-0.1,0.2-0.3,0.5-0.4,0.7C560.8,205.3,560.7,205.6,560.6,205.8z"/>
	<path class="st5" d="M576.8,168.2c0-0.7-0.2-1.4-0.5-2c-0.2-0.4-0.5-0.9-0.9-1.2c0.3,0.4,0.6,0.8,0.9,1.2
		C576.6,166.8,576.8,167.5,576.8,168.2z"/>
	<path class="st5" d="M560.2,208.4c0,0.6,0,1.2,0.1,1.8c-0.2-1.5-0.1-2.9,0.3-4.4c-0.1,0.3-0.2,0.6-0.2,0.8
		C560.3,207.2,560.2,207.8,560.2,208.4z"/>
	<path class="st5" d="M563.7,202c0.9-0.3,1.7-0.7,2.4-1.3c-0.2,0.1-0.3,0.3-0.5,0.4C565,201.5,564.3,201.7,563.7,202z"/>
	<path class="st5" d="M574.2,163.9c0.2,0.1,0.4,0.3,0.6,0.4c0.2,0.2,0.4,0.3,0.6,0.5c-0.9-0.9-2.1-1.5-3.4-1.9l0.8,0.3
		C573.3,163.4,573.7,163.7,574.2,163.9z"/>
	<path class="st5" d="M521.9,134c-0.2,0.1-0.3,0.3-0.4,0.4c0.3-0.4,0.7-0.7,1.2-0.9l-0.3,0.2C522.3,133.8,522.1,133.9,521.9,134z"/>
	<path class="st5" d="M522.5,136.8c0.4,0.3,0.8,0.5,1.2,0.8C523.3,137.3,522.9,137.1,522.5,136.8c-0.8-0.5-1.4-1.6-1-2.4
		C521.1,135.3,521.7,136.3,522.5,136.8z"/>
	<path class="st5" d="M572.3,192c-0.3,0.1-0.6,0.2-0.8,0.3C571.8,192.2,572,192.1,572.3,192z"/>
	<path class="st5" d="M518.3,138.5L518.3,138.5c0-0.3,0-0.5,0-0.8C518.3,138,518.3,138.3,518.3,138.5z"/>
	<path class="st5" d="M529.4,145.2c-0.8-0.1-1.6-0.2-2.3-0.5c0.2,0.1,0.4,0.1,0.5,0.2c0.4,0.1,0.8,0.2,1.2,0.2L529.4,145.2z"/>
	<path class="st5" d="M523.6,131.7c0,0.1,0.1,0.3,0.1,0.4c0-0.3-0.1-0.6-0.3-0.9c-0.2-0.3-0.5-0.5-0.9-0.5c0.4,0,0.7,0.2,0.9,0.5
		C523.5,131.4,523.6,131.5,523.6,131.7z"/>
	<path class="st5" d="M567,198.6c0.2-1.1,0.1-2.4,0.4-3.5c0,0.2-0.1,0.3-0.1,0.5C567.2,196.6,567.2,197.7,567,198.6z"/>
	<path class="st5" d="M567,198.6c-0.1,0.3-0.1,0.6-0.2,0.9C566.9,199.3,567,199,567,198.6z"/>
	<path class="st5" d="M568,193.9c-0.2,0.3-0.3,0.5-0.4,0.8c0,0.1-0.1,0.3-0.1,0.5C567.5,194.7,567.7,194.3,568,193.9z"/>
	<path class="st5" d="M568.3,193.5c0.8-0.6,1.8-1,2.8-1.1c-0.6,0.1-1.3,0.3-1.9,0.5C568.9,193.1,568.6,193.3,568.3,193.5z"/>
	<path class="st5" d="M557.8,212.6c0.8,0.5,1.5,1,2.3,1.5c0.5,0.3,1.1,0.7,1.6,1c-0.5-0.3-1.1-0.6-1.6-1
		C559.4,213.6,558.6,213.2,557.8,212.6z"/>
	<path class="st5" d="M519.1,134.1c0.1-0.1,0.3-0.3,0.4-0.5l0.2-0.3l0.5-0.7l0.3-0.4l0.2-0.2C520,132.9,519.5,133.7,519.1,134.1
		c-0.1,0.1-0.3,0.2-0.4,0.3l0.2-0.2L519.1,134.1z"/>
	<polygon class="st5" points="519.5,123.9 519.5,123.9 519.5,123.9 	"/>
	<path class="st5" d="M660.1,119.5c0.7,1.4,1.4,2.8,2.1,4.2c0.5,1.1,1.2,2.2,2,3.1l-2.5-7.7C661.1,119,660.5,119.2,660.1,119.5z"/>
	<path class="st5" d="M643.5,75.9l-0.3-0.4c0.1,0.2,0.1,0.4,0.1,0.6C643.3,76,643.4,76,643.5,75.9z"/>
	<path class="st6" d="M667.7,137.6c-1.4,0.8-2.9,1.5-4.5,2.1c-0.9,0.4-1.9,0.6-2.8,0.6c-1.8-0.3-2.7-2.2-3.2-3.9
		c-1.1-3.8-1.7-7.9-4-11.1c-0.8-0.9-1.6-2-2.1-3.1c-0.5-1.3-0.4-2.8-1.1-3.9s-2.5-1.8-2.6-3.3c0-1,0.7-1.9,1.7-2.3
		c0.9-0.4,1.9-0.6,2.9-0.9c0.4-0.2,0.8-0.4,0.8-0.8c0-0.6-0.8-0.8-1-1.4s0.4-1.2,0.7-1.8c0.6-1.4-0.9-2.8-2.3-3.3s-3.1-1-3.7-2.3
		c-0.2-0.6-0.4-1.3-0.5-2c-0.3-1.8-1.6-3.2-3.3-3.6c-1.7-0.3-3.7,1.3-3.4,3c0.3,0.9,0.7,1.8,1.3,2.6c0.4,0.9,0.3,2.2-0.6,2.4
		c-1.5,0.5-2.9-2.3-4.2-1.3c0.5,1.7,1,3.5,1.5,5.2c-2,1-4.3-0.8-5.1-2.8s-0.9-4.3-1.8-6.3s-3.7-3.4-5.4-2c-0.1,2.5,3.2,3.5,4.7,5.6
		c1.1,1.5,0.9,3.9-0.7,4.8s-4-0.7-3.4-2.4c0.2-0.6,0.7-1.1,0.8-1.7c0.1-0.8-0.6-1.4-1.2-1.9c-1-0.8-1.9-1.6-2.8-2.4
		c-0.6-0.6-1.3-1-2-1.3c-2-0.6-3.9,1-4.9,2.8s-1.6,3.8-3,5.3c-2,2.1-5.9,2.2-7.8,0s-1-6.4,1.9-7.2c1.1-0.3,2.4-0.3,3-1.2
		c1-1.7-1.8-3.8-0.9-5.5c0.8-1.3,2.7-0.7,4.2-1.1s2.2-1.9,3.1-3.1s2.2-2.5,3.6-2.2c-0.2-0.8-0.2-1.7,0-2.6c0.3-0.8,1.3-1.2,2.1-0.8
		c0,0,0.1,0,0.1,0c-0.7,1.2,0.2,2.8,1.4,3.4c1.3,0.5,2.7,0.6,4.1,0.3c1.4-0.2,3.1-0.7,3.2-2.1c0-0.4-0.1-0.9,0-1.3
		c0.6-1.7,3.7,0.6,4.8-0.7c0.7-0.7-0.1-1.9-1-2.2c-1-0.1-1.9,0-2.9,0.2c-1,0-2.1-0.5-2.2-1.4s1-1.6,1.1-2.6c0.2-1.6-2.5-2-3.5-0.7
		s-0.6,3.1-0.3,4.6s0.4,3.4-0.7,4.5c-0.5,0.7-1.8,0.3-2.2-0.4c-0.3-0.8-0.5-1.7-0.4-2.6c0-0.9-0.5-1.8-1.3-2.2
		c-0.6-0.1-1.3,0-1.9,0.2c-2.5,0.3-4.2-2.9-3.4-5.2s3-3.9,5.2-5.1c1.6-0.9,3.5-1.7,5.1-0.8c0.7,0.4,1.3,1.1,2,1.5
		c1.2,0.7,2.8,0.5,4.2,0.5c2.2,0.1,4.4,0.9,6.1,2.4c0.6,0.6,1.2,1.5,0.7,2.2s-2.1,0.9-1.8,1.8c1.6,0.5,3.3-0.5,3.8-2.1
		c0-0.1,0.1-0.2,0.1-0.4c0.1,0,0.2,0.1,0.3,0.2c-9-10.7-21-17.4-34-18.4c-0.1,0.2-0.2,0.3-0.4,0.4c-0.6,0.5-1.4,0.5-2,1
		s-0.8,1.6-1.1,2.4c-1,2.1-3.8,2.8-4.7,5c-0.5,1.3-0.3,2.9-1.2,4c-0.8,0.8-1.8,1.3-2.9,1.4l-6.8,1.6c-1,0.2-2,0.5-2.9,1
		c-1.8,1.1-2.7,3.1-4.1,4.6s-3.8,2.6-5.4,1.4c-0.7-0.7-1.1-1.6-1.1-2.6c-0.1-1.4,0.2-2.9,1-4.1c0.8-1.3,1.9-2.2,2.6-3.6
		s0.5-3.2-0.8-3.9c-0.7-0.3-1.6-0.2-2.3-0.7c-1.2-0.8-0.3-2.8,1-3.3s2.8-0.1,4.3,0c4.5,0.3,8-2.3,11.4-4.8h-18.2l-1.5,0.6
		c-0.9,0.4-1.8,0.8-2.6,1.2s-1.5,0.7-2.2,1s-1.5,0.8-2.3,1.2h-0.1c-0.7,0.4-1.4,0.8-2.2,1.2s-1.5,0.8-2.2,1.3l0,0
		c-0.7,0.4-1.3,0.8-2,1.3c-0.3,0.2-0.5,0.3-0.8,0.5c-0.7,0.4-1.4,0.9-2.1,1.4c-0.8,0.6-1.7,1.2-2.5,1.8s-1.4,1.1-2.1,1.6
		c-4,3.2-7.7,6.7-11.1,10.5c-1.2,1.3-2.3,2.7-3.4,4.1c-0.9,1.2-1.8,2.4-2.7,3.6l0.7-0.1c1.3,0,2.6-0.2,3.8-0.6
		c1-0.6,1.9-1.4,2.8-2.2c2.5-1.8,6.5-2.1,7.1-5c0.2-1,0-2.1,0.3-3c0.7-1.8,3-2,4.9-2c0.8,0,1.8,0.1,2.1,0.8c0.2,0.5,0.2,1.1-0.1,1.6
		c-1.2,3.3-3.5,6.2-6.5,8c-2.5,1.5-5.7,2.7-6.3,5.4c0.3,1,2.1,0.9,2.2,1.9c0.1,0.8-0.9,1.2-1.3,1.9c-0.5,1,0.7,2.3,1.9,2.2
		c1.2-0.2,2.2-0.8,3-1.7c2.6-2.4,5.3-5,6.2-8.3c0.4-1.4,0.5-3,1.7-4c1.3-0.9,3-0.6,3.9,0.7c0.1,0.2,0.3,0.4,0.3,0.7
		c1.1-0.6,2.8-1.1,3.4,0.1c0.1,0.4,0.2,0.9,0.2,1.3c0.4,1.8,2.8,2.6,3.1,4.4c0.3,2.1-2.4,3.2-4.5,3.5c-1.9,0.3-3.8,0.6-5.7,0.9
		c-0.8,0.1-1.7,0.3-2.4,0.8c-0.7,0.5-1,1.4-0.7,2.2c0.3,0.4,0.6,0.7,1,1c1.6,1.6,0.3,4.8-2,4.9c-0.8,0-1.5-0.3-2.3-0.3
		c-2.3-0.1-4,1.9-5.1,3.9s-1.9,4.3-3.7,5.6c-2.9,2.2-7.9,1.7-9.3,5c-0.4,1.4-0.4,2.9,0,4.3c0.4,1.4,0.2,3-0.5,4.3
		c-0.8,1.2-3,1.4-3.6,0.1c-0.2-0.6-0.2-1.3-0.1-1.9c0.3-2.1,0.7-4.2,1-6.3c0.2-1.6,0.5-3.3-0.5-4.6c-1.3-1.8-4.2-1.6-5.8-0.2
		s-2.3,3.7-2.8,5.8c0,0.2-0.1,0.4-0.1,0.6c-0.3,1.7-0.8,3.4-1.5,5c-0.3,1.8-0.5,3.5-0.7,5.3c-0.2,1.8-0.3,3.7-0.4,5.5l0,0
		c0.1-0.1,0.2-0.2,0.3-0.3c0.1-0.1,0.3-0.2,0.4-0.4c0.4-0.4,0.9-1.3,1.5-2c0.3-0.4,0.6-0.7,1-1c0.1-0.1,0.2-0.1,0.3-0.2
		c0.2-0.1,0.4-0.2,0.6-0.2l0,0c0.4,0,0.7,0.2,0.9,0.5c0.2,0.2,0.3,0.6,0.3,0.9c0-0.1,0-0.3-0.1-0.4c0.1,0.3,0.1,0.6,0,0.9
		c0,0.2-0.1,0.3-0.2,0.4c-0.1,0.2-0.3,0.3-0.5,0.4c-0.1,0.1-0.2,0.1-0.3,0.2c-0.5,0.2-0.9,0.5-1.2,0.9c-0.5,0.8,0.2,1.8,1,2.4
		c0.4,0.3,0.8,0.5,1.2,0.8c0.4,0.2,0.7,0.5,1,0.9c0.2,0.4,0.4,0.8,0.5,1.2c0.1,0.5,0.1,0.9,0.1,1.4c-0.1,0.9,0.1,1.8,0.5,2.6
		c0.4,0.6,1.1,1.1,1.9,1.2c-0.2,0-0.4-0.1-0.5-0.2c0.8,0.3,1.5,0.4,2.3,0.5l-0.6-0.1c0.4,0.1,0.8,0.1,1.2,0.1l0.5,0.1
		c0.1-1.1,0.5-2.2,1-3.2c0.2-0.3,0.4-0.6,0.6-0.9c0.8-0.9,1.8-1.6,3-2.1c0.5-0.2,1-0.3,1.5-0.4c1.1-0.2,2.3-0.3,3.4-0.1
		c0.8,0.1,1.6,0.3,2.4,0.5c1.2,0.4,2.4,0.9,3.5,1.4c1.5,0.8,2.9,1.7,4.3,2.8c0.3,0.3,0.6,0.5,0.9,0.8c0.6,0.5,1.1,1.1,1.6,1.6
		c0.2,0.3,0.5,0.6,0.7,0.8c2.8,3.7,4.4,8.5,7.5,11.8c1,1.1,2.2,2,3.6,2.6c2,0.9,4.5,1.2,6.6,1.7l0.8,0.2c1.3,0.3,2.4,1,3.4,1.9v0.1
		c0.3,0.4,0.6,0.8,0.9,1.2c0.3,0.6,0.5,1.3,0.5,2c0.1,1.8-0.6,3.8-1.3,5.7c-0.2,0.5-0.3,1-0.5,1.5c-0.2,0.5-0.3,1-0.4,1.5
		c0,0.2-0.1,0.5-0.1,0.7c0,0.3-0.1,0.7-0.1,1c0,2.3,0.6,4.5,0.8,6.8c0.1,1,0,2-0.2,3c-0.1,0.6-0.4,1.2-0.7,1.8
		c-0.3,0.5-0.7,1-1.2,1.4c-0.2,0.2-0.5,0.4-0.8,0.5c-0.3,0.1-0.6,0.2-0.8,0.3l-0.4,0.1c-1,0.1-2,0.5-2.8,1.1
		c0.3-0.2,0.6-0.4,0.9-0.6c-0.3,0.1-0.6,0.3-0.9,0.6c-0.3,0.3-0.6,0.7-0.7,1.2c0.1-0.3,0.3-0.6,0.4-0.8c-0.3,0.4-0.5,0.8-0.6,1.3
		c-0.3,1.1-0.2,2.4-0.4,3.5c-0.1,0.3-0.1,0.6-0.2,0.9c0.1-0.3,0.2-0.6,0.2-0.9c0.2-1,0.1-2.1,0.3-3c-0.2,1.5-0.1,3.1-0.7,4.4
		c-0.1,0.3-0.3,0.5-0.5,0.8c-0.7,0.5-1.5,0.9-2.4,1.3c-1,0.5-1.8,1.3-2.4,2.3c-0.3,0.5-0.5,1-0.7,1.5c-0.4,1.4-0.5,2.9-0.3,4.4
		c0,0,0,0.1,0,0.1c0.2,1.5,0.6,3,1.2,4.4l0.2,0.4c13.8,8.3,29.7,12.6,45.8,12.6c14.6,0,29-3.6,41.9-10.4l0,0
		c6.9-3.7,13.3-8.2,19-13.6c2.4-2.2,4.6-4.6,6.8-7.1c1.5-1.7,2.9-3.5,4.3-5.4c0.7-1,1.4-1.9,2-2.9s1.3-2,2-3L667.7,137.6z
		 M646.5,182.5c-2.2,3.4-2.6,7.6-3.3,11.6s-1.7,8.3-4.8,10.9s-8.7,2.5-10.4-1.2c-0.9-2-0.5-4.4-1-6.5c-0.7-2.8-2.9-4.9-3.9-7.6
		c-0.8-2.3-1.1-4.8-1-7.2c-0.4-13.3-3.7-27.3-12.7-37c-1-1.3-2.4-2.3-4-2.8c-1.9-0.5-4,0.2-5.2,1.8c-0.7,1-1.1,2.2-2,3
		c-2,1.8-5.3,0.5-6.6-1.8s-1.1-5.1-0.9-7.7l0.8-9.7c0.1-1.7,0.3-3.5,1.4-4.8c1.6-1.8,4.4-1.9,6.4-3.4c2.5-1.9,2.9-5.5,4.5-8.3
		s6.6-3.9,7.4-0.8c5.3-11.4,17,5.5,24,4.3c2-0.4,4-1.3,6-1.1c3.6,0.5,5.5,4.5,6.7,7.9l6.1,17c0.8,2.2,1.8,4.6,3.9,5.4
		c1.6,0.6,3.5,0.1,5.2,0.8c4.4,1.6,3,8.5-0.6,11.5s-8.5,5-10.1,9.3c-1.3,3.3-0.3,7.1-1.6,10.4C650,178.7,647.9,180.4,646.5,182.5z
		 M663.2,186.2c-1.4,0.2-3.1-0.5-4.2,0.4c-0.5,0.7-0.9,1.4-1,2.3c-0.3,1.1-1,2.1-2,2.8c-1,0.6-2.3,0.6-3.3-0.1
		c-1-0.7-1.2-2.1-0.5-3.1c0.3-0.4,0.9-0.6,1.3-1c1.9-1.8,0.6-5.1,2-7.3c0.9-1.3,2.2-2.6,3.1-3.8c0.7-1,1-1.8,2.3-2
		C666.7,173.2,669.3,185.4,663.2,186.2z"/>
	<path class="st5" d="M518.3,141.1c0-0.4,0-0.9,0-1.3C518.3,140.3,518.3,140.7,518.3,141.1c0,0.2,0,0.4,0,0.6c0,1.3,0.1,2.5,0.2,3.7
		c-0.1-1.2-0.2-2.5-0.2-3.7C518.3,141.5,518.3,141.3,518.3,141.1z"/>
	<path class="st5" d="M519.2,151.1c-0.3-1.9-0.5-3.7-0.6-5.6C518.7,147.4,518.9,149.2,519.2,151.1z"/>
	<path class="st5" d="M538.3,194.8c0.7,0.9,1.4,1.7,2.1,2.5c1,1.1,2,2.3,3.1,3.3c-1-1.1-2.1-2.2-3.1-3.3
		C539.7,196.5,539,195.6,538.3,194.8z"/>
	<path class="st5" d="M521.1,160.8c-0.4-1.5-0.7-3-1-4.4C520.4,157.8,520.7,159.3,521.1,160.8z"/>
	<path class="st5" d="M552.9,209L552.9,209c-1.1-0.8-2.1-1.7-3.1-2.5C550.7,207.4,551.8,208.2,552.9,209z"/>
	<path class="st5" d="M532.3,186.6c1.2,1.9,2.5,3.8,3.9,5.6c0.7,0.9,1.3,1.7,2,2.6c-0.7-0.9-1.4-1.7-2-2.6
		C534.9,190.4,533.6,188.5,532.3,186.6z"/>
	<path class="st5" d="M518.3,138.5L518.3,138.5c0-0.3,0-0.5,0-0.8"/>
	<path class="st5" d="M561.8,215.1c-0.5-0.3-1.1-0.6-1.6-1c-0.8-0.5-1.5-1-2.3-1.5"/>
	<path class="st5" d="M518.3,135.3c0-0.2,0-0.3,0-0.5l0,0C518.3,135,518.3,135.1,518.3,135.3c0,0.5,0,1.1,0,1.6
		C518.3,136.4,518.3,135.8,518.3,135.3z"/>
	<path class="st5" d="M518.9,134.3l0.2-0.2c0.1-0.1,0.3-0.3,0.4-0.5c-0.1,0.2-0.2,0.3-0.4,0.5L518.9,134.3z"/>
	<path class="st5" d="M518.3,136.9c0,0.3,0,0.5,0,0.8s0,0.5,0,0.8l0,0c0,0.4,0,0.9,0,1.3c0-0.4,0-0.9,0-1.3S518.3,137.4,518.3,136.9
		z"/>
	<path class="st5" d="M527.6,144.9c0.4,0.1,0.8,0.2,1.2,0.2C528.4,145.1,528,145,527.6,144.9z"/>
	<path class="st5" d="M563.7,202c0.6-0.3,1.3-0.5,1.8-0.9C565,201.5,564.3,201.7,563.7,202z"/>
	<path class="st5" d="M557.8,212.6c0.8,0.5,1.5,1,2.3,1.5c0.5,0.3,1.1,0.7,1.6,1c-0.5-0.3-1.1-0.6-1.6-1
		C559.4,213.6,558.6,213.2,557.8,212.6z"/>
	<path class="st5" d="M554.2,210.1l1.4,1c0.7,0.5,1.5,1.1,2.2,1.6c-0.8-0.5-1.5-1-2.2-1.6L554.2,210.1z"/>
	<path class="st5" d="M560.4,206.7c0-0.3,0.1-0.6,0.2-0.8c0.1-0.3,0.2-0.5,0.3-0.8C560.7,205.6,560.5,206.1,560.4,206.7z"/>
	<path class="st5" d="M560.2,208.4c0-0.6,0.1-1.2,0.2-1.8C560.3,207.2,560.3,207.8,560.2,208.4z"/>
	<path class="st5" d="M567.4,195.2c0-0.2,0.1-0.3,0.1-0.5c-0.1,0.3-0.2,0.6-0.2,0.9C567.3,195.5,567.4,195.3,567.4,195.2z"/>
	<path class="st5" d="M662.7,156.8c3.5-3,4.9-9.9,0.6-11.5c-1.7-0.6-3.6-0.1-5.2-0.8c-2.1-0.8-3.2-3.2-3.9-5.4L648,122
		c-1.2-3.4-3.1-7.4-6.7-7.9c-2-0.3-4,0.7-6,1.1c-7,1.3-18.7-15.6-24-4.3c-0.7-3.1-5.8-1.9-7.4,0.8s-2,6.4-4.5,8.3
		c-1.9,1.4-4.8,1.5-6.4,3.4c-1.1,1.3-1.3,3.1-1.4,4.8l-0.8,9.7c-0.2,2.6-0.4,5.4,0.9,7.7s4.7,3.6,6.6,1.8c0.9-0.8,1.3-2,2-3
		c1.2-1.6,3.3-2.3,5.2-1.8c1.6,0.5,3,1.5,4,2.8c9.1,9.8,12.3,23.7,12.7,37c-0.1,2.4,0.3,4.9,1,7.2c1,2.7,3.3,4.8,3.9,7.6
		c0.5,2.1,0,4.5,1,6.5c1.7,3.7,7.3,3.8,10.4,1.2s4.1-6.9,4.8-10.9s1-8.2,3.3-11.6c1.4-2.1,3.4-3.8,4.4-6.1c1.4-3.2,0.3-7.1,1.6-10.4
		C654.2,161.7,659.2,159.8,662.7,156.8z"/>
	<g class="st7">
		<path class="st5" d="M552.9,209L552.9,209c-4.6-12.3-8.9-24.8-16.3-35.4C544,184.3,548.3,196.8,552.9,209z"/>
	</g>
	<g class="st7">
		<path class="st5" d="M530.5,150.2c0,1.4,0.1,2.8,0.1,4.1l0,0C530.6,153,530.5,151.6,530.5,150.2z"/>
	</g>
	<g class="st7">
		<path class="st5" d="M532.6,168.1c-0.5-0.8-1-1.5-1.4-2.3C531.6,166.6,532.1,167.4,532.6,168.1z"/>
	</g>
	<g class="st7">
		<path class="st5" d="M525.9,148.2c1.5,0.3,3,0.6,4.5,0.6C528.9,148.8,527.4,148.5,525.9,148.2z"/>
	</g>
	<g class="st7">
		<path class="st5" d="M525.1,147.8c-0.1-0.2-0.2-0.5-0.2-0.7C524.9,147.3,524.9,147.6,525.1,147.8z"/>
	</g>
	<g class="st7">
		<path class="st5" d="M524,170.1c-1.1-3-2.1-6.2-2.9-9.3C521.9,163.9,522.9,167,524,170.1z"/>
	</g>
	<g class="st7">
		<path class="st5" d="M525.7,148.1c-0.2-0.1-0.4-0.2-0.6-0.4C525.2,148,525.4,148.1,525.7,148.1z"/>
	</g>
	<g class="st7">
		<path class="st5" d="M520.1,156.3c-0.3-1.7-0.6-3.5-0.9-5.3C519.4,152.8,519.7,154.6,520.1,156.3z"/>
	</g>
	<g class="st7">
		<path class="st5" d="M522.5,143.4c1.3,0.7,2.1,2,2.3,3.4C524.7,145.4,523.8,144.1,522.5,143.4z"/>
	</g>
	<g class="st7">
		<path class="st5" d="M522.7,133.5c0.1,0,0.2-0.1,0.3-0.2c-0.2,0.1-0.3,0.2-0.5,0.3L522.7,133.5z"/>
	</g>
	<g class="st7">
		<path class="st5" d="M524.7,138.5c-0.3-0.4-0.6-0.7-1-0.9c-0.4-0.3-0.8-0.5-1.2-0.8C523.4,137.2,524.1,137.8,524.7,138.5z"/>
	</g>
	<g class="st7">
		<path class="st5" d="M572,163l-0.8-0.2c0.5,0.1,1.1,0.3,1.6,0.5L572,163z"/>
	</g>
	<g class="st7">
		<path class="st5" d="M576.3,166.1c0.4,0.8,0.6,1.8,0.5,2.7c0-0.2,0-0.5,0-0.7C576.8,167.5,576.6,166.8,576.3,166.1
			c-0.2-0.4-0.5-0.8-0.9-1.2v-0.1c-0.2-0.2-0.4-0.3-0.6-0.5C575.5,164.9,575.9,165.5,576.3,166.1z"/>
	</g>
	<g class="st7">
		<path class="st5" d="M560.3,210.2L560.3,210.2c-0.1-0.6-0.1-1.2-0.1-1.8C560.2,209,560.2,209.6,560.3,210.2z"/>
	</g>
	<g class="st7">
		<path class="st5" d="M518.9,134.3l-0.2,0.2c-0.1,0.1-0.2,0.2-0.3,0.3l0,0C518.5,134.6,518.7,134.5,518.9,134.3z"/>
	</g>
	<g class="st7">
		<path class="st5" d="M523.6,131.7c0-0.2-0.1-0.3-0.2-0.5C523.5,131.4,523.6,131.5,523.6,131.7z"/>
	</g>
	<g class="st7">
		<path class="st5" d="M520.7,131.9l-0.1,0.1l-0.2,0.2L520.7,131.9z"/>
	</g>
	<g class="st7">
		<path class="st5" d="M520.2,132.6l-0.5,0.7L520.2,132.6z"/>
	</g>
	<g class="st7">
		<path class="st5" d="M530.1,158.1c-0.2,1.3-0.3,2.6-0.2,3.8c0.2,1.3,0.6,2.6,1.2,3.8c-0.6-1.2-1-2.5-1.2-3.8
			C529.8,160.7,529.9,159.4,530.1,158.1z"/>
	</g>
	<g class="st7">
		<path class="st5" d="M521.9,134c0.2-0.1,0.3-0.2,0.5-0.3C522.3,133.8,522.1,133.9,521.9,134z"/>
	</g>
	<g class="st7">
		<path class="st5" d="M574.2,163.9c-0.4-0.3-0.9-0.5-1.4-0.7C573.3,163.5,573.7,163.7,574.2,163.9z"/>
	</g>
	<path class="st5" d="M575.4,164.9L575.4,164.9L575.4,164.9z"/>
	<g class="st7">
		<path class="st5" d="M575.4,164.9L575.4,164.9L575.4,164.9z"/>
	</g>
	<path class="st5" d="M518.4,134.8L518.4,134.8c0.1-0.1,0.2-0.2,0.3-0.3C518.6,134.6,518.5,134.7,518.4,134.8z"/>
	<g class="st7">
		<path class="st5" d="M518.4,134.8L518.4,134.8c0.1-0.1,0.2-0.2,0.3-0.3C518.6,134.6,518.5,134.7,518.4,134.8z"/>
	</g>
	<path class="st5" d="M560.7,212.1c-0.1-0.6-0.3-1.2-0.3-1.8c0,0,0-0.1,0-0.1l0,0c-0.1-0.6-0.1-1.2-0.1-1.8c0-0.6,0.1-1.2,0.2-1.8
		c0.1-0.6,0.3-1.1,0.5-1.6c0.6-1.3,1.5-2.3,2.8-3c0.6-0.3,1.3-0.5,1.8-0.9c0.2-0.1,0.4-0.3,0.5-0.4c0.2-0.2,0.4-0.5,0.5-0.8
		c0.6-1.2,0.5-2.9,0.7-4.4c0-0.3,0.1-0.6,0.2-0.9c0.2-0.4,0.4-0.8,0.7-1.2c0.3-0.2,0.6-0.4,0.9-0.6c0.6-0.2,1.2-0.4,1.9-0.5l0.4-0.1
		c0.3-0.1,0.6-0.2,0.8-0.3c0.3-0.1,0.6-0.3,0.8-0.5c0.5-0.4,0.9-0.9,1.2-1.4c0.3-0.6,0.5-1.2,0.7-1.8c0.2-1,0.3-2,0.2-3
		c-0.2-2.3-0.8-4.5-0.8-6.8c0-0.3,0-0.7,0.1-1c0-0.2,0.1-0.5,0.1-0.7c0.1-0.5,0.2-1,0.4-1.5c0.1-0.5,0.3-1,0.5-1.5
		c0.7-1.9,1.4-3.9,1.3-5.7c0,0.2,0,0.5,0,0.7c0.1-0.9-0.1-1.9-0.5-2.7c-0.3-0.7-0.8-1.3-1.5-1.8c-0.2-0.2-0.4-0.3-0.6-0.4
		c-0.4-0.3-0.9-0.5-1.4-0.7c-0.5-0.2-1-0.3-1.6-0.5c-2.2-0.6-4.6-0.8-6.6-1.7c-1.4-0.6-2.6-1.5-3.6-2.6c-3-3.2-4.7-8.1-7.5-11.8
		c-0.2-0.3-0.4-0.6-0.7-0.8c-0.5-0.6-1-1.1-1.6-1.6c-0.3-0.3-0.6-0.5-0.9-0.8c-1.3-1.1-2.7-2-4.3-2.8c-1.1-0.6-2.3-1.1-3.5-1.4
		c-0.8-0.2-1.6-0.4-2.4-0.5c-1.1-0.1-2.3-0.1-3.4,0.1c-0.5,0.1-1,0.3-1.5,0.4c-1.2,0.4-2.2,1.1-3,2.1c-0.2,0.3-0.4,0.6-0.6,0.9
		c-0.5,1-0.9,2.1-1,3.2l-0.5-0.1c-0.4,0-0.8-0.1-1.2-0.1c-0.4,0-0.8-0.1-1.2-0.2c-0.8-0.1-1.4-0.6-1.9-1.2c-0.4-0.8-0.6-1.7-0.5-2.6
		c0-0.5,0-0.9-0.1-1.4c-0.1-0.4-0.2-0.9-0.5-1.2c-0.3-0.4-0.6-0.7-1-0.9c0.4,0.2,0.7,0.5,1,0.9c-0.6-0.7-1.4-1.2-2.2-1.7
		c-0.8-0.5-1.4-1.6-1-2.4c0.1-0.2,0.2-0.3,0.4-0.4c0.2-0.1,0.3-0.2,0.5-0.3c0.2-0.1,0.4-0.2,0.5-0.3c0.2-0.1,0.3-0.2,0.5-0.4
		c0.1-0.1,0.2-0.3,0.2-0.4c0.1-0.3,0.1-0.6,0-0.9c0-0.2-0.1-0.3-0.2-0.5c-0.2-0.3-0.5-0.5-0.9-0.5l0,0c-0.2,0-0.4,0.1-0.6,0.2
		c-0.1,0.1-0.2,0.1-0.3,0.2c-0.4,0.3-0.7,0.6-1,1l0.1-0.1l-0.3,0.4l-0.3,0.4l-0.5,0.7l-0.2,0.3c-0.1,0.2-0.2,0.3-0.4,0.5l-0.2,0.2
		c-0.2,0.2-0.4,0.4-0.5,0.5l0,0c0,0.2,0,0.3,0,0.5c0,0.5,0,1.1,0,1.6s0,1.1,0,1.6s0,0.9,0,1.3s0,0.9,0,1.3c0,0.2,0,0.4,0,0.6
		c0,1.3,0.1,2.5,0.2,3.7c0.2,1.9,0.4,3.8,0.6,5.6s0.5,3.5,0.9,5.3c0.3,1.5,0.7,3,1,4.4c0.8,3.2,1.8,6.3,2.9,9.3
		c1.5,4,3.3,7.9,5.5,11.7c0.9,1.6,1.8,3.2,2.8,4.8c1.2,1.9,2.5,3.8,3.9,5.6c0.7,0.9,1.3,1.7,2,2.6s1.4,1.7,2.1,2.5
		c1,1.1,2,2.3,3.1,3.3s2.1,2.1,3.2,3.2s2,1.8,3,2.7s2.1,1.7,3.1,2.5c-4.6-12.3-8.9-24.8-16.3-35.4c7.4,10.7,11.7,23.2,16.3,35.4l0,0
		c0.5,0.4,0.9,0.7,1.4,1.1l1.4,1c0.7,0.5,1.5,1.1,2.2,1.6s1.5,1,2.3,1.5c0.5,0.3,1.1,0.7,1.6,1l-0.2-0.4
		C561.1,213.8,560.9,212.9,560.7,212.1z M530.6,154.3c0-1.3,0-2.7-0.1-4.1C530.5,151.6,530.6,152.9,530.6,154.3z M522.6,143.4
		c1.3,0.7,2.1,2,2.3,3.4C524.7,145.4,523.8,144.1,522.6,143.4L522.6,143.4z M525.1,147.8c-0.1-0.2-0.2-0.5-0.2-0.7
		C524.9,147.3,525,147.6,525.1,147.8c0.1,0.2,0.4,0.3,0.6,0.4C525.4,148.1,525.2,148,525.1,147.8L525.1,147.8z M525.9,148.2
		c1.5,0.3,3,0.6,4.5,0.6C528.9,148.8,527.4,148.6,525.9,148.2L525.9,148.2z M531.2,165.8c-0.6-1.2-1-2.5-1.2-3.8
		c-0.1-1.3,0-2.6,0.2-3.8c-0.2,1.3-0.3,2.6-0.2,3.8C530.1,163.3,530.6,164.6,531.2,165.8c0.4,0.8,0.9,1.6,1.4,2.3
		C532.1,167.4,531.6,166.6,531.2,165.8L531.2,165.8z"/>
	<g class="st7">
		<path class="st5" d="M560.7,212.1c-0.1-0.6-0.3-1.2-0.3-1.8c0,0,0-0.1,0-0.1l0,0c-0.1-0.6-0.1-1.2-0.1-1.8c0-0.6,0.1-1.2,0.2-1.8
			c0.1-0.6,0.3-1.1,0.5-1.6c0.6-1.3,1.5-2.3,2.8-3c0.6-0.3,1.3-0.5,1.8-0.9c0.2-0.1,0.4-0.3,0.5-0.4c0.2-0.2,0.4-0.5,0.5-0.8
			c0.6-1.2,0.5-2.9,0.7-4.4c0-0.3,0.1-0.6,0.2-0.9c0.2-0.4,0.4-0.8,0.7-1.2c0.3-0.2,0.6-0.4,0.9-0.6c0.6-0.2,1.2-0.4,1.9-0.5
			l0.4-0.1c0.3-0.1,0.6-0.2,0.8-0.3c0.3-0.1,0.6-0.3,0.8-0.5c0.5-0.4,0.9-0.9,1.2-1.4c0.3-0.6,0.5-1.2,0.7-1.8c0.2-1,0.3-2,0.2-3
			c-0.2-2.3-0.8-4.5-0.8-6.8c0-0.3,0-0.7,0.1-1c0-0.2,0.1-0.5,0.1-0.7c0.1-0.5,0.2-1,0.4-1.5c0.1-0.5,0.3-1,0.5-1.5
			c0.7-1.9,1.4-3.9,1.3-5.7c0,0.2,0,0.5,0,0.7c0.1-0.9-0.1-1.9-0.5-2.7c-0.3-0.7-0.8-1.3-1.5-1.8c-0.2-0.2-0.4-0.3-0.6-0.4
			c-0.4-0.3-0.9-0.5-1.4-0.7c-0.5-0.2-1-0.3-1.6-0.5c-2.2-0.6-4.6-0.8-6.6-1.7c-1.4-0.6-2.6-1.5-3.6-2.6c-3-3.2-4.7-8.1-7.5-11.8
			c-0.2-0.3-0.4-0.6-0.7-0.8c-0.5-0.6-1-1.1-1.6-1.6c-0.3-0.3-0.6-0.5-0.9-0.8c-1.3-1.1-2.7-2-4.3-2.8c-1.1-0.6-2.3-1.1-3.5-1.4
			c-0.8-0.2-1.6-0.4-2.4-0.5c-1.1-0.1-2.3-0.1-3.4,0.1c-0.5,0.1-1,0.3-1.5,0.4c-1.2,0.4-2.2,1.1-3,2.1c-0.2,0.3-0.4,0.6-0.6,0.9
			c-0.5,1-0.9,2.1-1,3.2l-0.5-0.1c-0.4,0-0.8-0.1-1.2-0.1c-0.4,0-0.8-0.1-1.2-0.2c-0.8-0.1-1.4-0.6-1.9-1.2
			c-0.4-0.8-0.6-1.7-0.5-2.6c0-0.5,0-0.9-0.1-1.4c-0.1-0.4-0.2-0.9-0.5-1.2c-0.3-0.4-0.6-0.7-1-0.9c0.4,0.2,0.7,0.5,1,0.9
			c-0.6-0.7-1.4-1.2-2.2-1.7c-0.8-0.5-1.4-1.6-1-2.4c0.1-0.2,0.2-0.3,0.4-0.4c0.2-0.1,0.3-0.2,0.5-0.3c0.2-0.1,0.4-0.2,0.5-0.3
			c0.2-0.1,0.3-0.2,0.5-0.4c0.1-0.1,0.2-0.3,0.2-0.4c0.1-0.3,0.1-0.6,0-0.9c0-0.2-0.1-0.3-0.2-0.5c-0.2-0.3-0.5-0.5-0.9-0.5l0,0
			c-0.2,0-0.4,0.1-0.6,0.2c-0.1,0.1-0.2,0.1-0.3,0.2c-0.4,0.3-0.7,0.6-1,1l0.1-0.1l-0.3,0.4l-0.3,0.4l-0.5,0.7l-0.2,0.3
			c-0.1,0.2-0.2,0.3-0.4,0.5l-0.2,0.2c-0.2,0.2-0.4,0.4-0.5,0.5l0,0c0,0.2,0,0.3,0,0.5c0,0.5,0,1.1,0,1.6s0,1.1,0,1.6s0,0.9,0,1.3
			s0,0.9,0,1.3c0,0.2,0,0.4,0,0.6c0,1.3,0.1,2.5,0.2,3.7c0.2,1.9,0.4,3.8,0.6,5.6s0.5,3.5,0.9,5.3c0.3,1.5,0.7,3,1,4.4
			c0.8,3.2,1.8,6.3,2.9,9.3c1.5,4,3.3,7.9,5.5,11.7c0.9,1.6,1.8,3.2,2.8,4.8c1.2,1.9,2.5,3.8,3.9,5.6c0.7,0.9,1.3,1.7,2,2.6
			s1.4,1.7,2.1,2.5c1,1.1,2,2.3,3.1,3.3s2.1,2.1,3.2,3.2s2,1.8,3,2.7s2.1,1.7,3.1,2.5c-4.6-12.3-8.9-24.8-16.3-35.4
			c7.4,10.7,11.7,23.2,16.3,35.4l0,0c0.5,0.4,0.9,0.7,1.4,1.1l1.4,1c0.7,0.5,1.5,1.1,2.2,1.6s1.5,1,2.3,1.5c0.5,0.3,1.1,0.7,1.6,1
			l-0.2-0.4C561.1,213.8,560.9,212.9,560.7,212.1z M530.6,154.3c0-1.3,0-2.7-0.1-4.1C530.5,151.6,530.6,152.9,530.6,154.3z
			 M522.6,143.4c1.3,0.7,2.1,2,2.3,3.4C524.7,145.4,523.8,144.1,522.6,143.4L522.6,143.4z M525.1,147.8c-0.1-0.2-0.2-0.5-0.2-0.7
			C524.9,147.3,525,147.6,525.1,147.8c0.1,0.2,0.4,0.3,0.6,0.4C525.4,148.1,525.2,148,525.1,147.8L525.1,147.8z M525.9,148.2
			c1.5,0.3,3,0.6,4.5,0.6C528.9,148.8,527.4,148.6,525.9,148.2L525.9,148.2z M531.2,165.8c-0.6-1.2-1-2.5-1.2-3.8
			c-0.1-1.3,0-2.6,0.2-3.8c-0.2,1.3-0.3,2.6-0.2,3.8C530.1,163.3,530.6,164.6,531.2,165.8c0.4,0.8,0.9,1.6,1.4,2.3
			C532.1,167.4,531.6,166.6,531.2,165.8L531.2,165.8z"/>
	</g>
	<path class="st5" d="M521.1,118.3c0.5-2.1,1.2-4.4,2.8-5.8s4.5-1.6,5.8,0.2c0.9,1.3,0.7,3,0.5,4.6c-0.3,2.1-0.7,4.2-1,6.3
		c-0.2,0.6-0.1,1.3,0.1,1.9c0.6,1.3,2.8,1.1,3.6-0.1c0.7-1.3,0.9-2.8,0.5-4.3c-0.4-1.4-0.4-2.9,0-4.3c1.4-3.4,6.4-2.8,9.3-5
		c1.8-1.4,2.6-3.6,3.7-5.6s2.9-4,5.1-3.9c0.8,0,1.5,0.3,2.3,0.3c2.2-0.1,3.5-3.3,2-4.9c-0.4-0.3-0.7-0.6-1-1c-0.3-0.8,0-1.7,0.7-2.2
		c0.7-0.4,1.5-0.7,2.4-0.8c1.9-0.3,3.8-0.6,5.7-0.9c2.1-0.3,4.8-1.4,4.5-3.5c-0.3-1.8-2.7-2.6-3.1-4.4c0-0.5-0.1-0.9-0.2-1.3
		c-0.6-1.2-2.3-0.7-3.4-0.1c-0.5-1.4-2.1-2.2-3.5-1.7c-0.2,0.1-0.5,0.2-0.7,0.3c-1.1,0.9-1.3,2.6-1.7,4c-0.9,3.4-3.6,6-6.2,8.3
		c-0.8,0.9-1.8,1.5-3,1.7c-1.2,0.1-2.4-1.2-1.9-2.2c0.4-0.7,1.4-1.1,1.3-1.9c-0.1-1-1.9-0.9-2.2-1.9c0.7-2.8,3.9-4,6.3-5.4
		c3-1.8,5.3-4.7,6.5-8c0.3-0.5,0.3-1.1,0.1-1.6c-0.4-0.7-1.3-0.8-2.1-0.8c-1.9,0-4.3,0.2-4.9,2c-0.4,0.9-0.1,2-0.3,3
		c-0.7,2.9-4.7,3.3-7.1,5c-0.9,0.8-1.8,1.5-2.8,2.2c-1.2,0.4-2.5,0.6-3.8,0.6l-0.7,0.1c-0.8,1.1-1.5,2.2-2.3,3.3s-1.4,2.3-2.1,3.4
		c-3.2,5.5-5.8,11.3-7.8,17.3c-0.7,2.1-1.3,4.3-1.8,6.4c-0.6,2.2-1,4.4-1.3,6.6l0,0c0.7-1.6,1.2-3.3,1.5-5
		C521,118.7,521,118.5,521.1,118.3z"/>
	<path class="st5" d="M581.2,60.4c-1.4-0.1-2.9-0.5-4.3,0s-2.2,2.5-1,3.3c0.6,0.5,1.5,0.3,2.3,0.7c1.3,0.6,1.5,2.6,0.8,3.9
		s-1.8,2.3-2.6,3.6c-0.8,1.2-1.1,2.7-1,4.1c0,1,0.5,2,1.2,2.6c1.6,1.3,4.1,0.2,5.4-1.4s2.3-3.5,4.1-4.6c0.9-0.5,1.9-0.8,2.9-1
		l6.8-1.6c1.1-0.1,2.1-0.7,2.9-1.4c0.8-1.1,0.6-2.7,1.2-4c0.9-2.1,3.7-2.9,4.7-5c0.4-0.8,0.5-1.8,1.1-2.4s1.4-0.6,2-1
		c0.1-0.1,0.3-0.3,0.4-0.4c-1.1-0.1-2.3-0.1-3.4-0.1h-12.1C589.2,58.1,585.8,60.7,581.2,60.4z"/>
	<path class="st5" d="M638,76.5c-0.3-0.9,1.3-1,1.8-1.8s-0.1-1.7-0.7-2.2c-1.7-1.5-3.9-2.3-6.1-2.4c-1.4,0-3,0.2-4.2-0.5
		c-0.7-0.4-1.2-1.1-2-1.5c-1.6-0.9-3.5-0.1-5.1,0.8c-2.2,1.2-4.4,2.7-5.2,5.1s0.9,5.5,3.4,5.2c0.6-0.2,1.2-0.2,1.9-0.2
		c0.8,0.4,1.4,1.2,1.3,2.2c-0.1,0.9,0.1,1.8,0.4,2.6c0.4,0.8,1.7,1.2,2.2,0.4c1.2-1.1,1-3,0.7-4.5s-0.6-3.3,0.3-4.6s3.6-0.9,3.5,0.7
		c-0.1,0.9-1.2,1.6-1.1,2.6s1.2,1.5,2.2,1.4c0.9-0.2,1.9-0.2,2.9-0.2c1,0.2,1.7,1.5,1,2.2c-1.2,1.3-4.2-0.9-4.8,0.7
		c-0.2,0.4,0,0.9,0,1.3c-0.1,1.4-1.8,1.9-3.2,2.1c-1.4,0.3-2.8,0.2-4.1-0.3c-1.3-0.6-2.1-2.3-1.4-3.4c-0.8-0.4-1.7-0.1-2.1,0.7
		c0,0,0,0.1,0,0.1c-0.3,0.8-0.4,1.7-0.2,2.6c-1.5-0.3-2.8,0.9-3.6,2.2s-1.7,2.7-3.1,3.1s-3.4-0.2-4.2,1.1c-1,1.7,1.8,3.8,0.9,5.5
		c-0.6,0.9-1.9,0.9-3,1.2c-2.8,0.8-3.8,5-1.9,7.2s5.8,2.1,7.8,0c1.4-1.5,2-3.5,3-5.3s3-3.3,4.9-2.8c0.7,0.3,1.4,0.7,2,1.3
		c1,0.8,1.9,1.6,2.8,2.4c0.6,0.5,1.3,1.1,1.2,1.9c0,0.6-0.5,1.1-0.8,1.7c-0.6,1.7,1.9,3.3,3.4,2.4s1.7-3.3,0.7-4.8
		c-1.5-2-4.8-3-4.7-5.6c1.7-1.4,4.4,0.1,5.4,2s1,4.3,1.8,6.3s3.2,3.8,5.1,2.8c-0.5-1.8-1-3.5-1.5-5.2c1.2-0.9,2.7,1.8,4.2,1.3
		c0.9-0.3,1-1.6,0.6-2.4c-0.5-0.8-0.9-1.7-1.3-2.6c-0.3-1.7,1.6-3.3,3.4-3c1.7,0.4,3,1.9,3.3,3.6c0.1,0.7,0.2,1.4,0.5,2
		c0.7,1.4,2.3,1.8,3.7,2.3s2.8,2,2.3,3.3c-0.3,0.6-0.9,1.2-0.7,1.8s1,0.8,1,1.4c0,0.4-0.4,0.7-0.8,0.8c-0.9,0.4-2,0.5-2.9,0.9
		c-1,0.4-1.6,1.3-1.7,2.3c0.1,1.4,1.8,2.1,2.6,3.3s0.7,2.6,1.1,3.9c0.6,1.1,1.3,2.2,2.1,3.1c2.3,3.2,2.9,7.3,4,11.1
		c0.5,1.7,1.4,3.6,3.2,3.9c1,0.1,2-0.1,2.8-0.6c1.6-0.6,3.1-1.3,4.5-2.1l-3.5-10.8c-0.8-0.9-1.5-2-2-3.1c-0.7-1.4-1.4-2.8-2.1-4.2
		c0.4-0.3,1-0.5,1.5-0.4l-7.7-23.3c-2.3-7.2-5.9-13.9-10.5-19.9c-0.1,0.1-0.1,0.1-0.2,0.2c0-0.2-0.1-0.4-0.1-0.6
		c-0.3-0.5-0.7-0.9-1.1-1.3c-0.1-0.1-0.2-0.1-0.3-0.2c-0.3,1.7-1.9,2.8-3.5,2.5C638.1,76.5,638,76.5,638,76.5z"/>
	<path class="st5" d="M660.8,174.4c-1.3,0.3-1.6,1-2.3,2c-0.9,1.3-2.3,2.6-3.1,3.8c-1.5,2.1-0.2,5.5-2,7.3c-0.4,0.4-0.9,0.6-1.3,1
		c-0.7,1-0.5,2.4,0.5,3.1c1,0.7,2.3,0.7,3.3,0.1c1-0.7,1.7-1.6,2-2.8c0.1-0.8,0.5-1.6,1-2.3c1.1-1,2.8-0.2,4.2-0.4
		C669.3,185.4,666.7,173.2,660.8,174.4z"/>
	<g class="st7">
		<path class="st5" d="M662.7,156.8c3.5-3,4.9-9.9,0.6-11.5c-1.7-0.6-3.6-0.1-5.2-0.8c-2.1-0.8-3.2-3.2-3.9-5.4L648,122
			c-1.2-3.4-3.1-7.4-6.7-7.9c-2-0.3-4,0.7-6,1.1c-7,1.3-18.7-15.6-24-4.3c-0.7-3.1-5.8-1.9-7.4,0.8s-2,6.4-4.5,8.3
			c-1.9,1.4-4.8,1.5-6.4,3.4c-1.1,1.3-1.3,3.1-1.4,4.8l-0.8,9.7c-0.2,2.6-0.4,5.4,0.9,7.7s4.7,3.6,6.6,1.8c0.9-0.8,1.3-2,2-3
			c1.2-1.6,3.3-2.3,5.2-1.8c1.6,0.5,3,1.5,4,2.8c9.1,9.8,12.3,23.7,12.7,37c-0.1,2.4,0.3,4.9,1,7.2c1,2.7,3.3,4.8,3.9,7.6
			c0.5,2.1,0,4.5,1,6.5c1.7,3.7,7.3,3.8,10.4,1.2s4.1-6.9,4.8-10.9s1-8.2,3.3-11.6c1.4-2.1,3.4-3.8,4.4-6.1
			c1.4-3.2,0.3-7.1,1.6-10.4C654.2,161.7,659.2,159.8,662.7,156.8z"/>
	</g>
	<g class="st7">
		<path class="st5" d="M521.1,118.3c0.5-2.1,1.2-4.4,2.8-5.8s4.5-1.6,5.8,0.2c0.9,1.3,0.7,3,0.5,4.6c-0.3,2.1-0.7,4.2-1,6.3
			c-0.2,0.6-0.1,1.3,0.1,1.9c0.6,1.3,2.8,1.1,3.6-0.1c0.7-1.3,0.9-2.8,0.5-4.3c-0.4-1.4-0.4-2.9,0-4.3c1.4-3.4,6.4-2.8,9.3-5
			c1.8-1.4,2.6-3.6,3.7-5.6s2.9-4,5.1-3.9c0.8,0,1.5,0.3,2.3,0.3c2.2-0.1,3.5-3.3,2-4.9c-0.4-0.3-0.7-0.6-1-1
			c-0.3-0.8,0-1.7,0.7-2.2c0.7-0.4,1.5-0.7,2.4-0.8c1.9-0.3,3.8-0.6,5.7-0.9c2.1-0.3,4.8-1.4,4.5-3.5c-0.3-1.8-2.7-2.6-3.1-4.4
			c0-0.5-0.1-0.9-0.2-1.3c-0.6-1.2-2.3-0.7-3.4-0.1c-0.5-1.4-2.1-2.2-3.5-1.7c-0.2,0.1-0.5,0.2-0.7,0.3c-1.1,0.9-1.3,2.6-1.7,4
			c-0.9,3.4-3.6,6-6.2,8.3c-0.8,0.9-1.8,1.5-3,1.7c-1.2,0.1-2.4-1.2-1.9-2.2c0.4-0.7,1.4-1.1,1.3-1.9c-0.1-1-1.9-0.9-2.2-1.9
			c0.7-2.8,3.9-4,6.3-5.4c3-1.8,5.3-4.7,6.5-8c0.3-0.5,0.3-1.1,0.1-1.6c-0.4-0.7-1.3-0.8-2.1-0.8c-1.9,0-4.3,0.2-4.9,2
			c-0.4,0.9-0.1,2-0.3,3c-0.7,2.9-4.7,3.3-7.1,5c-0.9,0.8-1.8,1.5-2.8,2.2c-1.2,0.4-2.5,0.6-3.8,0.6l-0.7,0.1
			c-0.8,1.1-1.5,2.2-2.3,3.3s-1.4,2.3-2.1,3.4c-3.2,5.5-5.8,11.3-7.8,17.3c-0.7,2.1-1.3,4.3-1.8,6.4c-0.6,2.2-1,4.4-1.3,6.6l0,0
			c0.7-1.6,1.2-3.3,1.5-5C521,118.7,521,118.5,521.1,118.3z"/>
	</g>
	<g class="st7">
		<path class="st5" d="M581.2,60.4c-1.4-0.1-2.9-0.5-4.3,0s-2.2,2.5-1,3.3c0.6,0.5,1.5,0.3,2.3,0.7c1.3,0.6,1.5,2.6,0.8,3.9
			s-1.8,2.3-2.6,3.6c-0.8,1.2-1.1,2.7-1,4.1c0,1,0.5,2,1.2,2.6c1.6,1.3,4.1,0.2,5.4-1.4s2.3-3.5,4.1-4.6c0.9-0.5,1.9-0.8,2.9-1
			l6.8-1.6c1.1-0.1,2.1-0.7,2.9-1.4c0.8-1.1,0.6-2.7,1.2-4c0.9-2.1,3.7-2.9,4.7-5c0.4-0.8,0.5-1.8,1.1-2.4s1.4-0.6,2-1
			c0.1-0.1,0.3-0.3,0.4-0.4c-1.1-0.1-2.3-0.1-3.4-0.1h-12.1C589.2,58.1,585.8,60.7,581.2,60.4z"/>
	</g>
	<g class="st7">
		<path class="st5" d="M638,76.5c-0.3-0.9,1.3-1,1.8-1.8s-0.1-1.7-0.7-2.2c-1.7-1.5-3.9-2.3-6.1-2.4c-1.4,0-3,0.2-4.2-0.5
			c-0.7-0.4-1.2-1.1-2-1.5c-1.6-0.9-3.5-0.1-5.1,0.8c-2.2,1.2-4.4,2.7-5.2,5.1s0.9,5.5,3.4,5.2c0.6-0.2,1.2-0.2,1.9-0.2
			c0.8,0.4,1.4,1.2,1.3,2.2c-0.1,0.9,0.1,1.8,0.4,2.6c0.4,0.8,1.7,1.2,2.2,0.4c1.2-1.1,1-3,0.7-4.5s-0.6-3.3,0.3-4.6
			s3.6-0.9,3.5,0.7c-0.1,0.9-1.2,1.6-1.1,2.6s1.2,1.5,2.2,1.4c0.9-0.2,1.9-0.2,2.9-0.2c1,0.2,1.7,1.5,1,2.2
			c-1.2,1.3-4.2-0.9-4.8,0.7c-0.2,0.4,0,0.9,0,1.3c-0.1,1.4-1.8,1.9-3.2,2.1c-1.4,0.3-2.8,0.2-4.1-0.3c-1.3-0.6-2.1-2.3-1.4-3.4
			c-0.8-0.4-1.7-0.1-2.1,0.7c0,0,0,0.1,0,0.1c-0.3,0.8-0.4,1.7-0.2,2.6c-1.5-0.3-2.8,0.9-3.6,2.2s-1.7,2.7-3.1,3.1s-3.4-0.2-4.2,1.1
			c-1,1.7,1.8,3.8,0.9,5.5c-0.6,0.9-1.9,0.9-3,1.2c-2.8,0.8-3.8,5-1.9,7.2s5.8,2.1,7.8,0c1.4-1.5,2-3.5,3-5.3s3-3.3,4.9-2.8
			c0.7,0.3,1.4,0.7,2,1.3c1,0.8,1.9,1.6,2.8,2.4c0.6,0.5,1.3,1.1,1.2,1.9c0,0.6-0.5,1.1-0.8,1.7c-0.6,1.7,1.9,3.3,3.4,2.4
			s1.7-3.3,0.7-4.8c-1.5-2-4.8-3-4.7-5.6c1.7-1.4,4.4,0.1,5.4,2s1,4.3,1.8,6.3s3.2,3.8,5.1,2.8c-0.5-1.8-1-3.5-1.5-5.2
			c1.2-0.9,2.7,1.8,4.2,1.3c0.9-0.3,1-1.6,0.6-2.4c-0.5-0.8-0.9-1.7-1.3-2.6c-0.3-1.7,1.6-3.3,3.4-3c1.7,0.4,3,1.9,3.3,3.6
			c0.1,0.7,0.2,1.4,0.5,2c0.7,1.4,2.3,1.8,3.7,2.3s2.8,2,2.3,3.3c-0.3,0.6-0.9,1.2-0.7,1.8s1,0.8,1,1.4c0,0.4-0.4,0.7-0.8,0.8
			c-0.9,0.4-2,0.5-2.9,0.9c-1,0.4-1.6,1.3-1.7,2.3c0.1,1.4,1.8,2.1,2.6,3.3s0.7,2.6,1.1,3.9c0.6,1.1,1.3,2.2,2.1,3.1
			c2.3,3.2,2.9,7.3,4,11.1c0.5,1.7,1.4,3.6,3.2,3.9c1,0.1,2-0.1,2.8-0.6c1.6-0.6,3.1-1.3,4.5-2.1l-3.5-10.8c-0.8-0.9-1.5-2-2-3.1
			c-0.7-1.4-1.4-2.8-2.1-4.2c0.4-0.3,1-0.5,1.5-0.4l-7.7-23.3c-2.3-7.2-5.9-13.9-10.5-19.9c-0.1,0.1-0.1,0.1-0.2,0.2
			c0-0.2-0.1-0.4-0.1-0.6c-0.3-0.5-0.7-0.9-1.1-1.3c-0.1-0.1-0.2-0.1-0.3-0.2c-0.3,1.7-1.9,2.8-3.5,2.5
			C638.1,76.5,638,76.5,638,76.5z"/>
	</g>
	<g class="st7">
		<path class="st5" d="M660.8,174.4c-1.3,0.3-1.6,1-2.3,2c-0.9,1.3-2.3,2.6-3.1,3.8c-1.5,2.1-0.2,5.5-2,7.3c-0.4,0.4-0.9,0.6-1.3,1
			c-0.7,1-0.5,2.4,0.5,3.1c1,0.7,2.3,0.7,3.3,0.1c1-0.7,1.7-1.6,2-2.8c0.1-0.8,0.5-1.6,1-2.3c1.1-1,2.8-0.2,4.2-0.4
			C669.3,185.4,666.7,173.2,660.8,174.4z"/>
	</g>
	<path class="st5" d="M342.4,55.8L342.4,55.8h-0.1l-160.8-0.8h-5.3c-0.9,0-1.8,0-2.6,0l-2.6,0.1c-0.9,0-1.8,0.1-2.6,0.3
		c-0.9,0.1-1.7,0.2-2.6,0.4l-2.6,0.6c-0.4,0.1-0.9,0.2-1.3,0.3l-1.3,0.4l-2.5,0.8l-2.4,1l-1.2,0.5l-1.2,0.6l-2.3,1.3
		c-3.1,1.8-5.9,3.9-8.5,6.3c-2.6,2.4-5.1,5-7.3,7.8l-1.6,2.2c-0.5,0.7-1,1.4-1.5,2.2c-0.9,1.6-1.9,3-2.7,4.7l-1.2,2.4
		c-0.4,0.8-0.7,1.7-1.1,2.5s-0.7,1.7-1,2.5l-0.9,2.6c-0.6,1.7-1.1,3.4-1.7,5.2s-1.1,3.5-1.6,5.2l-26.2,84.7
		c-4.2,13.5-8.3,26.9-12.5,40.2c-1,3.3-2.1,6.7-3.1,10c-0.5,1.6-1,3.3-1.4,5s-0.8,3.4-1.2,5.1c-1.3,6.8-1.7,13.7-1.3,20.5
		c0.4,6.8,1.7,13.6,3.8,20c0.6,1.6,1.1,3.2,1.8,4.8l1,2.4L84,300c0.3,0.8,0.7,1.5,1.2,2.3l1.2,2.2c0.9,1.4,1.7,2.9,2.7,4.3
		c1.9,2.8,4,5.4,6.3,7.9c2.3,2.4,4.8,4.7,7.4,6.7c5.3,4.1,11.3,7.1,17.8,8.8c1.6,0.4,3.2,0.8,4.8,1c0.8,0.1,1.6,0.2,2.4,0.3
		c0.8,0.1,1.6,0.2,2.5,0.2l2.5,0.1c0.8,0,1.6,0,2.5,0h138.5l259.9,0h99.9h10.8c1.8,0,3.5,0,5.3,0l2.6-0.1l2.5-0.3
		c0.8-0.1,1.7-0.2,2.5-0.4c0.8-0.2,1.7-0.3,2.5-0.5c1.6-0.4,3.2-0.9,4.8-1.4c3-1,5.9-2.4,8.7-4c5.2-3.1,9.8-6.9,13.8-11.4
		c3.6-4.1,6.7-8.6,9.3-13.4c4.3-8.1,7.1-16.9,8.3-26c0.5-3.6,0.8-7.3,0.8-11c0-1.7,0-3.3-0.2-4.8s-0.2-3-0.4-4.3
		c-0.5-4.1-1.2-8.2-2.3-12.2c-0.8-2.7-1.2-4.1-1.2-4.1l1.2,4c1.1,4,1.9,8.1,2.4,12.2c0.2,1.4,0.2,2.8,0.4,4.3s0.1,3.1,0.2,4.8
		c0,3.7-0.3,7.4-0.7,11c-1.2,9.1-4,18-8.3,26.1c-2.6,4.8-5.7,9.4-9.3,13.5c-4,4.5-8.7,8.4-13.9,11.5c-2.8,1.6-5.7,3-8.8,4
		c-1.6,0.6-3.2,1-4.8,1.4c-0.8,0.2-1.7,0.3-2.5,0.5c-0.8,0.2-1.7,0.3-2.5,0.4l-2.6,0.3l-2.6,0.1c-1.7,0.1-3.5,0-5.3,0h-10.8h-99.9
		l-259.9,0.1H135.1c-0.8,0-1.6,0-2.5,0l-2.5-0.1c-0.8,0-1.7-0.1-2.5-0.2s-1.7-0.2-2.5-0.3c-1.6-0.3-3.3-0.6-4.9-1.1
		c-6.5-1.8-12.6-4.8-17.9-8.9c-2.7-2.1-5.2-4.3-7.5-6.8c-2.3-2.5-4.4-5.2-6.3-8c-1-1.4-1.8-2.9-2.7-4.3l-1.2-2.3
		c-0.4-0.7-0.8-1.5-1.2-2.3l-1.1-2.3l-1-2.4c-0.7-1.6-1.2-3.2-1.8-4.8c-2.1-6.5-3.4-13.3-3.9-20.2c-0.4-6.9,0.1-13.9,1.3-20.7
		c0.4-1.7,0.7-3.4,1.2-5.1s0.9-3.4,1.4-5c1-3.3,2.1-6.7,3.1-10l12.5-40.2l26.1-84.7c1.1-3.5,2.1-7,3.3-10.4l0.9-2.6
		c0.3-0.8,0.7-1.7,1-2.5s0.7-1.7,1.1-2.5l1.4-2.2c0.8-1.6,1.8-3.1,2.7-4.7c0.4-0.8,1-1.5,1.5-2.3l1.6-2.2c2.2-2.9,4.6-5.5,7.2-7.9
		c2.7-2.4,5.6-4.6,8.6-6.4l2.4-1.2l1.2-0.6l1.2-0.5l2.4-1.1l2.5-0.8l1.3-0.4c0.4-0.1,0.9-0.2,1.3-0.3l2.6-0.6
		c0.9-0.2,1.8-0.3,2.6-0.4c0.9-0.1,1.8-0.2,2.6-0.3l2.7-0.1c0.9,0,1.8,0,2.6,0h5.3l160.8,0.8h-0.1h0.1l0,0l0,0L342.4,55.8
		L342.4,55.8L342.4,55.8l-0.2-0.4h195.5h42.5h20.2c3.3-0.1,6.6,0,9.8,0.4l2.4,0.3l2.4,0.5c1.6,0.4,3.1,0.8,4.6,1.3
		c5.9,2.1,11.4,5.3,16.1,9.5c4.5,4,8.4,8.6,11.5,13.7c3,4.9,5.4,10.1,7.1,15.6c1.7,5.3,3.4,10.5,5.1,15.5l30.9,94.1l8.2,24.9
		l2.1,6.4c0.5,1.4,0.7,2.2,0.7,2.2s-0.3-0.7-0.7-2.2l-2.1-6.4c-1.9-5.7-4.6-14-8.3-24.9l-31-94L654.1,97c-1.7-5.4-4.1-10.7-7.1-15.5
		c-3.1-5.1-7-9.7-11.5-13.6c-4.7-4.1-10.1-7.3-16-9.4c-1.5-0.5-3-1-4.5-1.4l-2.3-0.5l-2.4-0.3c-3.3-0.3-6.5-0.5-9.8-0.4h-62.8H342.2
		h-0.9l0.8-0.5l0.1-0.1l0,0l0.2,0.4l0,0l0-0.1l0,0.1l0,0"/>
	<path class="st5" d="M317.9,261.8l1.2,2c1.3,2.2,3.2,4,5.5,5.1l2,1l-2,1.2c-2.2,1.3-4,3.2-5.1,5.5l-1,2l-1.2-2
		c-1.3-2.2-3.2-4-5.5-5.1l-2-1l2-1.2c2.2-1.3,4-3.3,5.1-5.5L317.9,261.8z"/>
	<path class="st5" d="M594.8,267.7l0.6,0.2c0.6,0.3,1.3,0.3,2,0.2l0.6-0.1l-0.2,0.6c-0.3,0.6-0.3,1.3-0.2,2l0.1,0.6l-0.6-0.2
		c-0.6-0.3-1.3-0.3-2-0.2l-0.6,0.1l0.2-0.6c0.3-0.6,0.3-1.3,0.2-2L594.8,267.7z"/>
</g>
<g id="freepik--Controls--inject-6">
	<polygon class="st8" points="294.2,360.6 310.8,360.6 310.8,205.5 59.2,205.5 44,205.5 44,363.6 44,460.6 339.9,460.6 339.9,390.7 
			"/>
	<g class="st9">
		<polygon class="st5" points="294.2,360.6 310.8,360.6 310.8,205.5 59.2,205.5 44,205.5 44,363.6 44,460.6 339.9,460.6 
			339.9,390.7 		"/>
	</g>
	<rect x="59.4" y="205.5" class="st6" width="251.6" height="155.1"/>
	<polygon class="st6" points="340.2,390.7 311,360.5 59.4,360.5 93.1,390.7 	"/>
	<rect x="71.1" y="218.3" class="st4" width="227.3" height="128.5"/>
	<path class="st8" d="M227.1,259.7c-0.2,0-0.3,0-0.5,0h-1.5l-5.9,0.1l0.1-0.1c-1,3.5-2.3,8.1-3.8,13.7l-0.4,1.4v-1.4
		c0-7.1,0-15.8-0.1-25.2l0.5,0.1l-2.9,11.4l-0.1,0.2H206l0.3-0.2l-3.2,13.9l-0.5,2.2v-2.2c0-9.5,0-18.1,0.1-25.2l0.4,0.1
		c-1.5,4.8-2.8,8.9-3.9,12.2v0.1H199l-7.5-0.1h-2H189h-0.2h0.2h0.5h2l7.5-0.1l-0.1,0.1c1-3.3,2.3-7.4,3.8-12.2l0.4-1.3v1.3
		c0,7.2,0,15.8,0,25.2l-0.5-0.1c1-4.4,2.1-9.1,3.2-13.9v-0.2h6.6l-0.3,0.2c1-3.9,2-7.7,3-11.4l0.5-1.9v2c0,9.5,0,18.1-0.1,25.2
		l-0.4,0c1.6-5.5,2.9-10.1,3.9-13.6v-0.1h0.1l5.9,0.1h1.5L227.1,259.7z"/>
	<path class="st2" d="M275.2,317.3c-0.1-0.3-0.2-0.5-0.3-0.8c-0.2-0.8-0.6-1.5-1-2.2c-0.7-1.1-1.5-2.1-2.4-3c-1-1.1-2.3-2.2-3.7-3.5
		c-1.6-1.3-3-2.8-4.3-4.4c-1.5-1.9-2.3-4.3-2.3-6.7c0.3-2.7,1.3-5.2,2.9-7.3c1.6-2.3,3.6-4.2,5.4-6.5c1.9-2,3.2-4.5,3.9-7.2
		c0.5-2.5,0-5.1-1.2-7.4c-2.2-4.4-5.6-7.5-7.6-10.8c-1.7-2.5-2.7-5.4-2.7-8.4c0-0.8,0.2-1.6,0.5-2.4c0.1-0.3,0.2-0.5,0.4-0.8
		c-0.4,1-0.6,2.1-0.6,3.2c0.1,3,1.1,5.8,2.8,8.2c2,3.2,5.4,6.3,7.7,10.8c1.3,2.4,1.7,5.1,1.3,7.7c-0.7,2.8-2.1,5.3-4,7.4
		c-1.8,2.2-3.8,4.2-5.4,6.4c-1.6,2-2.6,4.4-2.9,7c-0.1,2.3,0.7,4.6,2.1,6.4c1.3,1.6,2.7,3.1,4.2,4.4c1.4,1.3,2.6,2.4,3.7,3.5
		c0.9,0.9,1.7,2,2.3,3.1c0.4,0.7,0.8,1.5,1,2.2C275.1,316.7,275.2,317,275.2,317.3z"/>
	<path class="st2" d="M263.3,317.3c-0.1-0.3-0.1-0.6-0.1-0.8c0.1-0.8,0.3-1.6,0.7-2.3c0.6-1.1,1.4-2.1,2.3-3c1-1.1,2.3-2.1,3.7-3.4
		c1.6-1.3,2.8-2.9,3.7-4.7c0.9-2.1,1-4.5,0.5-6.7c-0.5-2.5-1.6-4.9-3-7c-1.4-2.2-3.2-4.4-4.8-6.7c-1.7-2.2-3-4.7-3.9-7.4
		c-0.9-2.5-0.9-5.2-0.1-7.7c0.8-2.2,2.1-4.3,3.7-6c1.4-1.7,2.9-3.1,4-4.6c1.9-2.2,3.2-4.9,3.5-7.8c0.1-1.1-0.1-2.1-0.4-3.2
		c0,0.1,0.1,0.1,0.1,0.2c0,0.1,0.1,0.3,0.2,0.6c0.2,0.8,0.3,1.6,0.3,2.4c-0.3,3-1.5,5.7-3.5,8c-1.1,1.5-2.6,3-4,4.6
		c-1.5,1.7-2.8,3.7-3.5,5.9c-0.7,2.4-0.7,5,0.2,7.4c0.9,2.6,2.2,5,3.8,7.2c1.6,2.3,3.4,4.5,4.8,6.7c1.4,2.2,2.5,4.6,3,7.1
		c0.5,2.3,0.3,4.8-0.6,7c-0.9,1.9-2.2,3.5-3.8,4.8c-1.4,1.2-2.7,2.3-3.8,3.3c-0.9,0.9-1.7,1.9-2.3,2.9c-0.4,0.7-0.7,1.4-0.8,2.2
		C263.2,317,263.3,317.3,263.3,317.3z"/>
	<path class="st2" d="M283.9,317.3c0,0.1-6.2,0.3-13.9,0.3s-13.9-0.1-13.9-0.3s6.2-0.3,13.9-0.3S283.9,317.1,283.9,317.3z"/>
	<path class="st2" d="M281.9,246c0,0.1-6.2,0.3-13.9,0.3s-13.9-0.1-13.9-0.3s6.2-0.3,13.9-0.3S281.9,245.8,281.9,246z"/>
	<path class="st2" d="M263,234.4c0,0.1-33.2,0.3-74.1,0.3s-74.2-0.1-74.2-0.3s33.2-0.3,74.2-0.3S263,234.3,263,234.4z"/>
	<path class="st2" d="M132.4,237.9c-2.9,0.3-5.7,0.3-8.6,0.3c-2.9,0.1-5.8,0-8.6-0.3c2.9-0.3,5.7-0.3,8.6-0.3
		C126.7,237.6,129.6,237.7,132.4,237.9z"/>
	<path class="st2" d="M143.5,293.8c-2.9,0.3-5.7,0.4-8.6,0.3c-2.9,0.1-5.8,0-8.6-0.3c2.9-0.3,5.7-0.3,8.6-0.3
		C137.7,293.4,140.6,293.5,143.5,293.8z"/>
	<path class="st2" d="M143.5,308.4c-2.9,0.3-5.7,0.3-8.6,0.3c-2.9,0.1-5.8,0-8.6-0.3c2.9-0.3,5.7-0.3,8.6-0.3
		C137.7,308.1,140.6,308.2,143.5,308.4z"/>
	<path class="st2" d="M136.6,243.8c-1.7,0.3-3.3,0.3-5,0.3c-1.7,0.1-3.3,0-5-0.3c1.7-0.3,3.3-0.3,5-0.3
		C133.3,243.5,135,243.6,136.6,243.8z"/>
	<path class="st2" d="M137.4,247c-1.9,0.3-3.8,0.3-5.6,0.3c-1.9,0.1-3.8,0-5.7-0.3c1.9-0.3,3.8-0.3,5.7-0.3
		C133.6,246.7,135.5,246.7,137.4,247z"/>
	<path class="st2" d="M137.4,250.5c-1.9,0.3-3.8,0.3-5.6,0.3c-1.9,0.1-3.8,0-5.7-0.3c1.9-0.3,3.8-0.3,5.7-0.3
		C133.6,250.2,135.5,250.2,137.4,250.5z"/>
	<path class="st2" d="M137.4,254c-1.9,0.3-3.8,0.3-5.6,0.3c-1.9,0.1-3.8,0-5.7-0.3c1.9-0.3,3.8-0.3,5.7-0.3
		C133.6,253.7,135.5,253.7,137.4,254z"/>
	<path class="st2" d="M137.4,257.5c-1.9,0.3-3.8,0.3-5.6,0.3c-1.9,0.1-3.8,0-5.7-0.3c1.9-0.3,3.8-0.4,5.7-0.3
		C133.6,257.2,135.5,257.3,137.4,257.5z"/>
	<path class="st2" d="M137.4,261.1c-1.9,0.3-3.8,0.3-5.6,0.3c-1.9,0.1-3.8,0-5.7-0.3c1.9-0.3,3.8-0.4,5.7-0.3
		C133.6,260.7,135.5,260.8,137.4,261.1z"/>
	<path class="st2" d="M151.8,243.8c-1.7,0.3-3.3,0.3-5,0.3c-1.7,0.1-3.3,0-5-0.3c1.7-0.3,3.3-0.3,5-0.3
		C148.5,243.5,150.2,243.6,151.8,243.8z"/>
	<path class="st2" d="M152.6,247c-1.9,0.3-3.8,0.3-5.6,0.3c-1.9,0.1-3.8,0-5.7-0.3c1.9-0.3,3.8-0.3,5.7-0.3
		C148.8,246.7,150.7,246.7,152.6,247z"/>
	<path class="st2" d="M152.6,250.5c-1.9,0.3-3.8,0.3-5.6,0.3c-1.9,0.1-3.8,0-5.7-0.3c1.9-0.3,3.8-0.3,5.7-0.3
		C148.8,250.2,150.7,250.2,152.6,250.5z"/>
	<path class="st2" d="M152.6,254c-1.9,0.3-3.8,0.3-5.6,0.3c-1.9,0.1-3.8,0-5.7-0.3c1.9-0.3,3.8-0.3,5.7-0.3
		C148.8,253.7,150.7,253.7,152.6,254z"/>
	<path class="st2" d="M152.6,257.5c-1.9,0.3-3.8,0.3-5.6,0.3c-1.9,0.1-3.8,0-5.7-0.3c1.9-0.3,3.8-0.4,5.7-0.3
		C148.8,257.2,150.7,257.3,152.6,257.5z"/>
	<path class="st2" d="M152.6,261.1c-1.9,0.3-3.8,0.3-5.6,0.3c-1.9,0.1-3.8,0-5.7-0.3c1.9-0.3,3.8-0.4,5.7-0.3
		C148.8,260.7,150.7,260.8,152.6,261.1z"/>
	<path class="st2" d="M137.4,265.1c-1.9,0.3-3.8,0.3-5.6,0.3c-1.9,0.1-3.8,0-5.7-0.3c1.9-0.3,3.8-0.4,5.7-0.3
		C133.6,264.8,135.5,264.8,137.4,265.1z"/>
	<path class="st2" d="M152.6,265.1c-1.9,0.3-3.8,0.3-5.6,0.3c-1.9,0.1-3.8,0-5.7-0.3c1.9-0.3,3.8-0.4,5.7-0.3
		C148.8,264.8,150.7,264.8,152.6,265.1z"/>
	<path class="st2" d="M137.4,269.1c-1.9,0.3-3.8,0.3-5.6,0.3c-1.9,0.1-3.8,0-5.7-0.3c1.9-0.3,3.8-0.4,5.7-0.3
		C133.6,268.8,135.5,268.9,137.4,269.1z"/>
	<path class="st2" d="M152.6,269.1c-1.9,0.3-3.8,0.3-5.6,0.3c-1.9,0.1-3.8,0-5.7-0.3c1.9-0.3,3.8-0.4,5.7-0.3
		C148.8,268.8,150.7,268.9,152.6,269.1z"/>
	<path class="st2" d="M137.4,273.2c-1.9,0.3-3.8,0.3-5.6,0.3c-1.9,0.1-3.8,0-5.7-0.3c1.9-0.3,3.8-0.4,5.7-0.3
		C133.6,272.8,135.5,272.9,137.4,273.2z"/>
	<path class="st2" d="M152.6,273.2c-1.9,0.3-3.8,0.3-5.6,0.3c-1.9,0.1-3.8,0-5.7-0.3c1.9-0.3,3.8-0.4,5.7-0.3
		C148.8,272.8,150.7,272.9,152.6,273.2z"/>
	<path class="st2" d="M137.4,277.2c-1.9,0.3-3.8,0.3-5.6,0.3c-1.9,0.1-3.8,0-5.7-0.3c1.9-0.3,3.8-0.4,5.7-0.3
		C133.6,276.9,135.5,277,137.4,277.2z"/>
	<path class="st2" d="M152.6,277.2c-1.9,0.3-3.8,0.3-5.6,0.3c-1.9,0.1-3.8,0-5.7-0.3c1.9-0.3,3.8-0.4,5.7-0.3
		C148.8,276.9,150.7,277,152.6,277.2z"/>
	<path class="st10" d="M113.2,324.4c0,0,0-0.1,0-0.4s0-0.6,0-1c0-0.9,0-2.3,0-4c0-3.5,0-8.6-0.1-15c0-12.8-0.1-30.7-0.1-51.7
		l0.2,0.3H79l0.3-0.3c0,27.9,0,53.3-0.1,72.1l-0.2-0.2l24.9,0.1l6.8,0h1.8L113.2,324.4l-0.6,0h-1.8l-6.8,0L79,324.5h-0.2v-0.2
		c0-18.8,0-44.2-0.1-72.1L79,252l0,0h34.2h0.3v0.2c-0.1,21-0.1,39.1-0.1,51.9c0,6.4,0,11.4-0.1,14.9c0,1.7,0,3,0,4c0,0.4,0,0.8,0,1
		C113.2,324.1,113.2,324.2,113.2,324.4z"/>
	<path class="st2" d="M214.4,289.5c0,0.1-19.6,0.3-43.7,0.3s-43.7-0.1-43.7-0.3s19.6-0.3,43.7-0.3S214.4,289.3,214.4,289.5z"/>
	<path class="st2" d="M154.1,293.1c-1.9,0.3-3.8,0.3-5.6,0C150.3,292.7,152.2,292.7,154.1,293.1z"/>
	<path class="st2" d="M173.7,300.2c0,0.1-10.5,0.3-23.5,0.3s-23.5-0.1-23.5-0.3s10.5-0.3,23.5-0.3S173.7,300,173.7,300.2z"/>
	<path class="st2" d="M172,303.9c0,0.1-10,0.3-22.3,0.3s-22.3-0.1-22.3-0.3s10-0.3,22.3-0.3S172,303.7,172,303.9z"/>
	<path class="st2" d="M186.4,299.5c-1.3,0.3-2.7,0.3-4.1,0.3c-1.3,0.1-2.7,0-4-0.3c1.3-0.3,2.7-0.3,4-0.3
		C183.7,299.1,185.1,299.2,186.4,299.5z"/>
	<path class="st2" d="M198.7,299.5c-1.5,0.3-2.9,0.3-4.4,0.3c-1.5,0.1-3,0-4.4-0.3c1.5-0.3,2.9-0.3,4.4-0.3
		C195.8,299.1,197.2,299.2,198.7,299.5z"/>
	<path class="st2" d="M233.6,317.6c-0.1,0.3-0.3,0.5-0.5,0.7c-0.6,0.6-1.4,0.9-2.2,1c-1.3,0.1-2.7-0.2-3.8-0.9
		c-1.4-1-2.6-2.3-3.6-3.7c-1.2-1.7-2.8-3-4.6-3.9c-2.1-1-4.5-1.5-6.8-1.4c-2.6,0.1-5.1,1.1-7.1,2.7c-2.1,1.6-4,3.8-6.4,5.6
		c-1.1,0.9-2.5,1.6-3.9,2c-1.4,0.3-2.9,0.3-4.3-0.1c-2.7-0.9-4.8-2.6-7-3.7c-1.1-0.6-2.2-0.9-3.4-1.1c-1.1-0.1-2.3,0-3.4,0.2
		c-2,0.6-3.9,1.4-5.7,2.4c-1.5,0.9-3,1.6-4.7,2.2c-1.2,0.5-2.5,0.7-3.8,0.7c-0.8,0-1.6-0.1-2.4-0.4c-0.3-0.1-0.5-0.2-0.6-0.3
		s-0.2-0.1-0.2-0.1c1,0.4,2.1,0.6,3.2,0.5c1.3-0.1,2.5-0.3,3.7-0.8c1.6-0.6,3.1-1.4,4.6-2.2c1.8-1.1,3.7-1.9,5.7-2.5
		c1.1-0.3,2.3-0.4,3.5-0.3c1.2,0.2,2.4,0.6,3.6,1.1c2.3,1.1,4.4,2.8,7,3.6c1.3,0.4,2.7,0.5,4,0.1c1.4-0.4,2.6-1,3.7-1.9
		c2.3-1.8,4.1-3.9,6.4-5.6c2.1-1.7,4.7-2.7,7.4-2.8c2.4-0.1,4.8,0.4,7,1.5c1.9,1,3.5,2.4,4.7,4.1c1,1.4,2.1,2.6,3.5,3.7
		c1.1,0.7,2.3,1.1,3.6,1c0.8,0,1.6-0.4,2.2-0.9C233.5,317.9,233.6,317.6,233.6,317.6z"/>
	<path class="st2" d="M96.1,257.1c-2.3,0.3-4.7,0.3-7,0.3c-2.3,0.1-4.7,0-7-0.3c2.3-0.3,4.7-0.4,7-0.3
		C91.4,256.8,93.8,256.9,96.1,257.1z"/>
	<path class="st2" d="M108.7,257.4c-1.3,0.3-2.6,0.3-3.9,0.3c-1.3,0.1-2.6,0-3.9-0.3c1.3-0.3,2.6-0.3,3.9-0.3
		C106.1,257,107.4,257.1,108.7,257.4z"/>
	<path class="st2" d="M96.1,260.8c-2.3,0.3-4.7,0.3-7,0.3c-2.3,0.1-4.7,0-7-0.3c2.3-0.3,4.7-0.3,7-0.3
		C91.4,260.5,93.8,260.6,96.1,260.8z"/>
	<path class="st2" d="M108.7,261.1c-1.3,0.3-2.6,0.3-3.9,0.3c-1.3,0.1-2.6,0-3.9-0.3c1.3-0.3,2.6-0.3,3.9-0.3
		C106.1,260.7,107.4,260.8,108.7,261.1z"/>
	<path class="st2" d="M96.1,264.5c-2.3,0.3-4.7,0.3-7,0.3c-2.3,0.1-4.7,0-7-0.3c2.3-0.3,4.7-0.3,7-0.3
		C91.4,264.2,93.8,264.3,96.1,264.5z"/>
	<path class="st2" d="M108.7,264.8c-1.3,0.3-2.6,0.3-3.9,0.3c-1.3,0.1-2.6,0-3.9-0.3c1.3-0.3,2.6-0.3,3.9-0.3
		C106.1,264.4,107.4,264.5,108.7,264.8z"/>
	<path class="st2" d="M96.1,268.2c-2.3,0.3-4.7,0.3-7,0.3c-2.3,0.1-4.7,0-7-0.3c2.3-0.3,4.7-0.3,7-0.3
		C91.4,267.9,93.8,268,96.1,268.2z"/>
	<path class="st2" d="M108.7,268.5c-1.3,0.3-2.6,0.3-3.9,0.3c-1.3,0.1-2.6,0-3.9-0.3c1.3-0.3,2.6-0.3,3.9-0.3
		C106.1,268.1,107.4,268.2,108.7,268.5z"/>
	<path class="st2" d="M96.1,271.9c-2.3,0.3-4.7,0.3-7,0.3c-2.3,0.1-4.7,0-7-0.3c2.3-0.3,4.7-0.3,7-0.3
		C91.4,271.6,93.8,271.7,96.1,271.9z"/>
	<path class="st2" d="M108.7,272.2c-1.3,0.3-2.6,0.3-3.9,0.3c-1.3,0.1-2.6,0-3.9-0.3c1.3-0.3,2.6-0.3,3.9-0.3
		C106.1,271.8,107.4,271.9,108.7,272.2z"/>
	<path class="st2" d="M96.1,275.6c-2.3,0.3-4.7,0.3-7,0.3c-2.3,0.1-4.7,0-7-0.3c2.3-0.3,4.7-0.3,7-0.3
		C91.4,275.3,93.8,275.4,96.1,275.6z"/>
	<path class="st2" d="M108.7,275.9c-1.3,0.3-2.6,0.3-3.9,0.3c-1.3,0.1-2.6,0-3.9-0.3c1.3-0.3,2.6-0.3,3.9-0.3
		C106.1,275.5,107.4,275.6,108.7,275.9z"/>
	<path class="st2" d="M96.1,279.3c-2.3,0.3-4.7,0.3-7,0.3c-2.3,0.1-4.7,0-7-0.3c2.3-0.3,4.7-0.3,7-0.3
		C91.4,279,93.8,279.1,96.1,279.3z"/>
	<path class="st2" d="M108.7,279.6c-1.3,0.3-2.6,0.4-3.9,0.3c-1.3,0.1-2.6,0-3.9-0.3c1.3-0.3,2.6-0.3,3.9-0.3
		C106.1,279.2,107.4,279.3,108.7,279.6z"/>
	<path class="st2" d="M96.1,283c-2.3,0.3-4.7,0.3-7,0.3c-2.3,0.1-4.7,0-7-0.3c2.3-0.3,4.7-0.3,7-0.3C91.4,282.7,93.8,282.7,96.1,283
		z"/>
	<path class="st2" d="M108.7,283.3c-1.3,0.3-2.6,0.3-3.9,0.3c-1.3,0.1-2.6,0-3.9-0.3c1.3-0.3,2.6-0.3,3.9-0.3
		C106.1,282.9,107.4,283,108.7,283.3z"/>
	<path class="st2" d="M96.1,286.7c-2.3,0.3-4.7,0.3-7,0.3c-2.3,0.1-4.7,0-7-0.3c2.3-0.3,4.7-0.3,7-0.3
		C91.4,286.4,93.8,286.5,96.1,286.7z"/>
	<path class="st2" d="M108.7,287c-1.3,0.3-2.6,0.3-3.9,0.3c-1.3,0.1-2.6,0-3.9-0.3c1.3-0.3,2.6-0.3,3.9-0.3
		C106.1,286.7,107.4,286.7,108.7,287z"/>
	<path class="st2" d="M96.1,290.4c-2.3,0.3-4.7,0.3-7,0.3c-2.3,0.1-4.7,0-7-0.3c2.3-0.3,4.7-0.3,7-0.3
		C91.4,290.1,93.8,290.2,96.1,290.4z"/>
	<path class="st2" d="M108.7,290.7c-1.3,0.3-2.6,0.3-3.9,0.3c-1.3,0.1-2.6,0-3.9-0.3c1.3-0.3,2.6-0.3,3.9-0.3
		C106.1,290.3,107.4,290.4,108.7,290.7z"/>
	<path class="st2" d="M96.1,294.1c-2.3,0.3-4.7,0.3-7,0.3c-2.3,0.1-4.7,0-7-0.3c2.3-0.3,4.7-0.3,7-0.3
		C91.4,293.8,93.8,293.9,96.1,294.1z"/>
	<path class="st2" d="M108.7,294.4c-1.3,0.3-2.6,0.3-3.9,0.3c-1.3,0.1-2.6,0-3.9-0.3c1.3-0.3,2.6-0.3,3.9-0.3
		C106.1,294,107.4,294.1,108.7,294.4z"/>
	<path class="st2" d="M96.1,297.8c-2.3,0.3-4.7,0.3-7,0.3c-2.3,0.1-4.7,0-7-0.3c2.3-0.3,4.7-0.3,7-0.3
		C91.4,297.5,93.8,297.6,96.1,297.8z"/>
	<path class="st2" d="M108.7,298.1c-1.3,0.3-2.6,0.3-3.9,0.3c-1.3,0.1-2.6,0-3.9-0.3c1.3-0.3,2.6-0.3,3.9-0.3
		C106.1,297.7,107.4,297.8,108.7,298.1z"/>
	<path class="st2" d="M96.1,301.5c-2.3,0.3-4.7,0.3-7,0.3c-2.3,0.1-4.7,0-7-0.3c2.3-0.3,4.7-0.3,7-0.3
		C91.4,301.2,93.8,301.3,96.1,301.5z"/>
	<path class="st2" d="M108.7,301.8c-1.3,0.3-2.6,0.3-3.9,0.3c-1.3,0.1-2.6,0-3.9-0.3c1.3-0.3,2.6-0.3,3.9-0.3
		C106.1,301.4,107.4,301.5,108.7,301.8z"/>
	<path class="st2" d="M96.1,305.2c-2.3,0.3-4.7,0.3-7,0.3c-2.3,0.1-4.7,0-7-0.3c2.3-0.3,4.7-0.3,7-0.3
		C91.4,304.9,93.8,305,96.1,305.2z"/>
	<path class="st2" d="M108.7,305.5c-1.3,0.3-2.6,0.3-3.9,0.3c-1.3,0.1-2.6,0-3.9-0.3c1.3-0.3,2.6-0.3,3.9-0.3
		C106.1,305.1,107.4,305.2,108.7,305.5z"/>
	<path class="st2" d="M96.1,308.9c-2.3,0.3-4.7,0.3-7,0.3c-2.3,0.1-4.7,0-7-0.3c2.3-0.3,4.7-0.3,7-0.3
		C91.4,308.6,93.8,308.7,96.1,308.9z"/>
	<path class="st2" d="M108.7,309.2c-1.3,0.3-2.6,0.4-3.9,0.3c-1.3,0.1-2.6,0-3.9-0.3c1.3-0.3,2.6-0.3,3.9-0.3
		C106.1,308.8,107.4,308.9,108.7,309.2z"/>
	<path class="st2" d="M96.1,312.6c-2.3,0.3-4.7,0.3-7,0.3c-2.3,0.1-4.7,0-7-0.3c2.3-0.3,4.7-0.3,7-0.3
		C91.4,312.3,93.8,312.4,96.1,312.6z"/>
	<path class="st2" d="M108.7,313c-1.3,0.2-2.6,0.3-3.9,0.2c-1.3,0.1-2.6-0.1-3.9-0.3c1.3-0.2,2.6-0.3,3.9-0.2
		C106.1,312.6,107.4,312.7,108.7,313z"/>
	<path class="st2" d="M101.1,317.8c-1.4,1.3-3,2.5-4.6,3.5l-0.1,0.1l-0.2-0.1l-0.2-0.1c-1.7-1-3.4-2.1-4.9-3.4
		c1.8,0.8,3.5,1.9,5.2,3l0.2,0.1h-0.3C97.7,319.7,99.4,318.7,101.1,317.8z"/>
	<rect x="89.1" y="409.9" class="st6" width="251.1" height="50.7"/>
	<polygon class="st11" points="62.6,243.8 102.7,239.8 108.7,216.6 62.6,216.6 	"/>
	<polyline class="st11" points="67.3,332.9 104.8,335.5 111.8,347.3 67.3,350.9 67.3,331.4 	"/>
	<polygon class="st11" points="267.6,216.6 276.2,235.2 309.5,237.7 305.2,216.6 	"/>
	<polygon class="st11" points="251.4,349.1 259,331.4 298.8,328.7 300.8,350.5 	"/>
	<path class="st4" d="M311.5,360.5c0,0.1-56.6,0.4-126.4,0.6s-126.4,0.2-126.4,0.1s56.6-0.4,126.4-0.6S311.5,360.4,311.5,360.5z"/>
	<polygon class="st2" points="136.4,376.7 145,383.9 167.4,383.9 158.3,376.7 	"/>
	<polygon class="st2" points="177.5,376.7 186.1,383.9 208.4,383.9 199.4,376.7 	"/>
	<polygon class="st2" points="94.5,376.7 103,383.9 126.3,383.9 117.3,376.7 	"/>
	<polygon class="st2" points="218.5,376.7 227.1,383.9 249.5,383.9 240.5,376.7 	"/>
	<polygon class="st8" points="158.3,376.7 167.4,383.9 186.1,383.9 177.5,376.7 	"/>
	<polygon class="st8" points="199.4,376.7 208.4,383.9 227.1,383.9 218.5,376.7 	"/>
	<polygon class="st8" points="248.5,367.4 259.6,376.7 240.5,376.7 249.5,383.9 268.2,383.9 	"/>
	<polygon class="st8" points="117.3,376.7 126.3,383.9 145,383.9 136.4,376.7 	"/>
	<polygon class="st10" points="94.5,376.7 94.5,376.7 83.7,367.4 	"/>
	<polygon class="st8" points="240.5,376.7 228.8,367.4 207.4,367.4 218.5,376.7 	"/>
	<polygon class="st8" points="105.6,367.4 83.7,367.4 94.5,376.7 117.3,376.7 	"/>
	<polygon class="st8" points="199.4,376.7 187.8,367.4 166.4,367.4 177.5,376.7 	"/>
	<polygon class="st8" points="158.3,376.7 146.7,367.4 125.3,367.4 136.4,376.7 	"/>
	<polygon class="st2" points="177.5,376.7 166.4,367.4 146.7,367.4 158.3,376.7 	"/>
	<polygon class="st2" points="218.5,376.7 207.4,367.4 187.8,367.4 199.4,376.7 	"/>
	<polygon class="st2" points="259.6,376.7 248.5,367.4 228.8,367.4 240.5,376.7 	"/>
	<polygon class="st2" points="136.4,376.7 125.3,367.4 105.6,367.4 117.3,376.7 	"/>
	<g class="st7">
		<polygon points="158.3,376.7 167.4,383.9 186.1,383.9 177.5,376.7 		"/>
	</g>
	<g class="st9">
		<polygon class="st11" points="199.4,376.7 208.4,383.9 227.1,383.9 218.5,376.7 		"/>
	</g>
	<g class="st12">
		<polygon class="st11" points="248.5,367.4 259.6,376.7 240.5,376.7 249.5,383.9 268.2,383.9 		"/>
	</g>
	<g class="st12">
		<polygon points="117.3,376.7 126.3,383.9 145,383.9 136.4,376.7 		"/>
	</g>
	<g class="st7">
		<polygon points="240.5,376.7 228.8,367.4 207.4,367.4 218.5,376.7 		"/>
	</g>
	<g class="st9">
		<polygon points="105.6,367.4 83.7,367.4 94.5,376.7 117.3,376.7 		"/>
	</g>
	<g class="st12">
		<polygon points="199.4,376.7 187.8,367.4 166.4,367.4 177.5,376.7 		"/>
	</g>
	<g class="st9">
		<polygon points="158.3,376.7 146.7,367.4 125.3,367.4 136.4,376.7 		"/>
	</g>
	<polygon class="st4" points="268.3,367.4 288,383.9 320.5,383.9 301.9,367.4 	"/>
	<path class="st4" d="M109,460.6c0-0.2,0-0.4,0-0.6c0-0.4,0-1,0-1.7c0-1.5,0-3.6-0.1-6.2c0-5.3,0-12.6-0.1-20.8V431h2.8h9.5
		l-0.2,0.2c1.9-6.2,3.5-11.5,4.7-15.4l1.4-4.4l0.4-1.2c0-0.1,0.1-0.3,0.2-0.4c0,0.1,0,0.3-0.1,0.4l-0.3,1.2l-1.3,4.6l-4.5,15.4v0.2
		H109l0.3-0.3c0,8.2-0.1,15.5-0.1,20.8c0,2.6-0.1,4.7-0.1,6.2c0,0.7,0,1.2,0,1.7C109.1,460.2,109.1,460.4,109,460.6z"/>
	<path class="st4" d="M311,430.9c0,0.1-42.5,0.3-94.8,0.3s-94.8-0.1-94.8-0.3s42.4-0.3,94.8-0.3S311,430.8,311,430.9z"/>
	<path class="st4" d="M323.5,460.6c0-0.2-0.1-0.4,0-0.6c0-0.4,0-1,0-1.7c0-1.5,0-3.7-0.1-6.3c0-5.4,0-12.8-0.1-21l0.3,0.3h-12.7
		l0-0.2c-1.5-6.1-2.9-11.4-3.8-15.1l-1-4.4c-0.1-0.5-0.2-0.9-0.3-1.2c0-0.1-0.1-0.3-0.1-0.4c0.1,0.1,0.1,0.3,0.1,0.4
		c0.1,0.3,0.2,0.7,0.3,1.2c0.3,1.1,0.7,2.5,1.2,4.3c1,3.8,2.4,9,4,15.1l-0.2-0.2h10.2h2.5v0.3c0,8.3-0.1,15.7-0.1,21
		c0,2.6-0.1,4.8-0.1,6.3c0,0.7,0,1.3,0,1.7C323.6,460.2,323.6,460.4,323.5,460.6z"/>
	<path class="st4" d="M312.5,413.9c0.1,0-0.2,0.3-0.1,0.8c0,0.3,0.2,0.5,0.4,0.7c0.4,0.2,1,0,1.2-0.4c0.1-0.1,0.1-0.3,0.1-0.5
		c-0.1-0.3-0.2-0.5-0.5-0.6c-0.5-0.3-0.8-0.1-0.8-0.2s0.3-0.4,1-0.1c0.4,0.1,0.7,0.5,0.8,0.9c0.1,0.7-0.4,1.4-1.1,1.5
		c-0.3,0.1-0.6,0-0.9-0.2c-0.3-0.3-0.5-0.6-0.5-1.1C312,414.1,312.4,413.9,312.5,413.9z"/>
	<path class="st4" d="M314,422.3c0.1,0.1-0.2,0.3-0.1,0.8c0,0.3,0.2,0.5,0.4,0.7c0.4,0.2,1,0,1.2-0.4c0.1-0.1,0.1-0.3,0.1-0.5
		c-0.1-0.3-0.2-0.5-0.5-0.6c-0.4-0.3-0.8-0.1-0.8-0.2s0.3-0.4,1-0.1c0.4,0.1,0.7,0.5,0.8,0.9c0.1,0.5-0.1,1.1-0.6,1.3
		c-0.4,0.3-1,0.3-1.5,0c-0.3-0.3-0.5-0.6-0.5-1C313.5,422.5,314,422.3,314,422.3z"/>
	<path class="st4" d="M98.7,437.9c0.1,0-0.2,0.4,0,0.9c0.1,0.3,0.3,0.5,0.5,0.7c0.3,0.2,0.7,0.1,1-0.2c0.3-0.2,0.4-0.6,0.3-0.9
		c-0.1-0.3-0.3-0.5-0.6-0.6c-0.5-0.2-0.9,0-0.9-0.1s0.3-0.5,1-0.3c0.4,0.1,0.8,0.4,1,0.8c0.2,0.5,0,1.1-0.4,1.5
		c-0.4,0.4-1.1,0.5-1.6,0.3c-0.4-0.2-0.6-0.6-0.7-1C98.2,438.2,98.7,437.9,98.7,437.9z"/>
	<path class="st4" d="M99.7,448.5c0,0.1-0.4,0.2-0.6,0.8c-0.1,0.3-0.1,0.7,0.1,1c0.4,0.5,1,0.5,1.5,0.2c0.2-0.1,0.3-0.3,0.3-0.5
		c0.1-0.3,0-0.7-0.2-0.9c-0.4-0.5-0.8-0.5-0.8-0.6s0.5-0.2,1.1,0.3c0.3,0.3,0.5,0.8,0.4,1.3c-0.1,0.6-0.6,1-1.2,1.1
		c-0.6,0.1-1.2-0.1-1.5-0.7c-0.2-0.4-0.2-0.9,0-1.3C99.2,448.5,99.8,448.5,99.7,448.5z"/>
</g>
<g id="freepik--Capsule--inject-6">
	<path class="st6" d="M501,206c-13.2-5.9-27.9,1.9-40.4,9.6s-27,15.8-40.3,10.3c-4.3-1.8-8.1-4.9-12.3-7s-9.3-3.1-13.3-0.7v229H500
		L501,206z"/>
	<path class="st4" d="M505.4,447.3c0-2.4-0.1-122-0.3-290.2l0.3,0.3H388.7l0.3-0.3c0,113.8-0.1,216.6-0.1,290.2l-0.2-0.2
		L505.4,447.3l-116.6,0.2h-0.2v-0.2c0-73.6,0-176.4-0.1-290.2v-0.3h117.1v0.3C505.5,325.3,505.4,445,505.4,447.3z"/>
	<path class="st4" d="M374.9,135h144.3c5.7,0,10.3,4.6,10.3,10.3v1.6c0,5.7-4.6,10.3-10.3,10.3H374.9c-5.7,0-10.3-4.6-10.3-10.3
		v-1.6C364.6,139.6,369.2,135,374.9,135z"/>
	<path class="st4" d="M380.2,446.1h137c7.7,0,14,6.3,14,14v0.7l0,0H366.3l0,0v-0.7C366.3,452.4,372.5,446.1,380.2,446.1z"/>
	<path class="st2" d="M385.1,458.4c-0.3-2.8-0.3-5.6,0-8.4C385.5,452.8,385.5,455.6,385.1,458.4z"/>
	<path class="st2" d="M390.9,458.4c-0.3-2.8-0.3-5.6,0-8.4C391.3,452.8,391.3,455.6,390.9,458.4z"/>
	<path class="st2" d="M396.7,458.4c-0.3-2.8-0.3-5.6,0-8.4C397.1,452.8,397.1,455.6,396.7,458.4z"/>
	<path class="st2" d="M402.5,458.4c-0.3-2.8-0.3-5.6,0-8.4C402.9,452.8,402.9,455.6,402.5,458.4z"/>
	<path class="st2" d="M408.3,458.4c-0.3-2.8-0.3-5.6,0-8.4C408.7,452.8,408.7,455.6,408.3,458.4z"/>
	<path class="st2" d="M414.1,458.4c-0.3-2.8-0.3-5.6,0-8.4C414.4,452.8,414.4,455.6,414.1,458.4z"/>
	<path class="st2" d="M419.9,458.4c-0.3-2.8-0.3-5.6,0-8.4C420.2,452.8,420.2,455.6,419.9,458.4z"/>
	<path class="st2" d="M425.7,458.4c-0.3-2.8-0.3-5.6,0-8.4C426,452.8,426,455.6,425.7,458.4z"/>
	<path class="st2" d="M431.5,458.4c-0.3-2.8-0.3-5.6,0-8.4C431.8,452.8,431.8,455.6,431.5,458.4z"/>
	<path class="st2" d="M437.3,458.4c-0.3-2.8-0.3-5.6,0-8.4C437.6,452.8,437.6,455.6,437.3,458.4z"/>
	<path class="st2" d="M443.1,458.4c-0.3-2.8-0.3-5.6,0-8.4C443.4,452.8,443.4,455.6,443.1,458.4z"/>
	<path class="st2" d="M448.9,458.4c-0.3-2.8-0.3-5.6,0-8.4C449.2,452.8,449.2,455.6,448.9,458.4z"/>
	<path class="st2" d="M454.7,458.4c-0.3-2.8-0.3-5.6,0-8.4C455,452.8,455,455.6,454.7,458.4z"/>
	<path class="st2" d="M460.5,458.4c-0.3-2.8-0.3-5.6,0-8.4C460.8,452.8,460.8,455.6,460.5,458.4z"/>
	<path class="st2" d="M466.3,458.4c-0.3-2.8-0.3-5.6,0-8.4C466.6,452.8,466.6,455.6,466.3,458.4z"/>
	<path class="st2" d="M472,458.4c-0.3-2.8-0.3-5.6,0-8.4C472.3,452.8,472.3,455.6,472,458.4z"/>
	<path class="st2" d="M477.8,458.4c-0.3-2.8-0.3-5.6,0-8.4C478.2,452.8,478.2,455.6,477.8,458.4z"/>
	<path class="st2" d="M483.6,458.4c-0.3-2.8-0.3-5.6,0-8.4C484,452.8,484,455.6,483.6,458.4z"/>
	<path class="st2" d="M489.4,458.4c-0.3-2.8-0.3-5.6,0-8.4C489.8,452.8,489.8,455.6,489.4,458.4z"/>
	<path class="st2" d="M495.2,458.4c-0.3-2.8-0.3-5.6,0-8.4C495.6,452.8,495.6,455.6,495.2,458.4z"/>
	<path class="st2" d="M501,458.4c-0.3-2.8-0.3-5.6,0-8.4C501.3,452.8,501.3,455.6,501,458.4z"/>
	<path class="st2" d="M506.8,458.4c-0.3-2.8-0.3-5.6,0-8.4C507.2,452.8,507.2,455.6,506.8,458.4z"/>
	<path class="st2" d="M512.6,458.4c-0.3-2.8-0.3-5.6,0-8.4C512.9,452.8,512.9,455.6,512.6,458.4z"/>
	<path class="st2" d="M518.4,458.4c-0.3-2.8-0.3-5.6,0-8.4C518.7,452.8,518.7,455.6,518.4,458.4z"/>
	<polygon class="st4" points="486.7,157.2 403.1,157.2 403.1,55.8 486.7,55.8 	"/>
	<path class="st4" d="M399.4,319.5c-0.1,0-0.3-32.3-0.3-72.1s0.1-72.1,0.3-72.1s0.3,32.3,0.3,72.1S399.6,319.5,399.4,319.5z"/>
	<g class="st7">
		<path class="st2" d="M396.8,223c6.6,9.8,15.4,18.5,26.2,23.3s23.8,5.3,34.3-0.3c9.4-5,15.9-14.2,25.1-19.5
			c3.3-1.9,6.8-3.2,9.8-5.5s5.8-5.9,4.9-9.6c-0.8-3.1-5.4-4.9-10.5-4.4s-10.9,3.7-14.9,6.8c-8.3,6.4-15.6,10.2-25.1,14.7
			s-21.2,5.8-30.1,0.4c-3.3-2-6-5.2-9.7-7.5C403.4,219.3,397.7,219.3,396.8,223"/>
	</g>
	<g class="st7">
		<path class="st2" d="M479.6,258.5c0,2.1-1.7,3.8-3.8,3.8s-3.8-1.7-3.8-3.8s1.7-3.8,3.8-3.8l0,0
			C477.9,254.7,479.6,256.4,479.6,258.5z"/>
	</g>
	<g class="st7">
		<path class="st2" d="M422.1,379.7c0,2.1-1.7,3.8-3.8,3.8s-3.8-1.7-3.8-3.8s1.7-3.8,3.8-3.8l0,0C420.4,376,422.1,377.7,422.1,379.7
			z"/>
	</g>
	<g class="st7">
		<path class="st2" d="M454.1,271.2c0,0.8-0.7,1.5-1.5,1.5c-0.8,0-1.5-0.7-1.5-1.5c0-0.8,0.7-1.5,1.5-1.5c0,0,0,0,0,0
			C453.5,269.8,454.1,270.4,454.1,271.2z"/>
	</g>
	<g class="st7">
		<circle class="st2" cx="422.1" cy="395.7" r="1.5"/>
	</g>
	<g class="st7">
		<path d="M458.8,372.4c1.6-2.8,6.4-11.3,6.7-14.6c0.5-5.3-1.3-11.6-8.7-13.2c-2.5-0.6-5.4-0.7-6.9-3.3c-0.9-1.7-0.8-3.8,0.2-5.5
			c2.1-3.3,6.2-4,9.8-3.5c2.5,0.4,5,1.3,7.6,0.8c0.2,0,0.4-0.1,0.5-0.1c2.5-0.8,1.5-4.5-1.1-4c-1.4,0.3-2.9,0.3-4.3-0.1
			c-1.8-0.4-3.2-1.8-3.8-3.5c-0.7-2.7,1.4-4.8,3.6-5.8c1.8-0.8,3.8-1,5.7-1.7c7.1-2.4,11.4-10.9,9.3-18s-9.7-12.6-17-10.8h0.3
			c-24,1.3-42.4,21.9-41.1,46c0,0,0,0.1,0,0.1c0.3,5.4,1.8,11.1,5.7,14.9c5.4,5.3,14,5.8,21.4,4.4c3.1-0.6,6.1-1.5,9.2-0.5
			c2,0.6,2.6,2.3,2.1,4.3c-0.4,1.8-3.2,7.5-4.9,11.9c0,0,7.1,10.8,7.1,9.5S458.8,372.4,458.8,372.4z"/>
	</g>
	<path class="st4" d="M559,55.8c-0.1,0.3-0.2,0.5-0.4,0.8c-0.3,0.5-0.7,1.2-1.2,2.1c-1.6,2.5-3.4,4.9-5.4,7.1c-3,3.2-6.5,6-10.3,8.3
		c-4.7,2.7-9.6,5.1-14.7,6.9c-2.6,1-5.3,1.8-8,2.4c-2.6,0.6-5.1,1-7.7,1.3c-4.4,0.5-8.8,0.5-13.2,0.1c-3-0.3-5.9-0.7-8.8-1.4
		c-1-0.2-1.8-0.5-2.4-0.6c-0.3-0.1-0.5-0.1-0.8-0.3c0.3,0,0.6,0.1,0.8,0.2c0.5,0.1,1.3,0.3,2.4,0.5c2.9,0.6,5.8,1,8.8,1.3
		c4.4,0.4,8.8,0.3,13.1-0.2c2.6-0.3,5.1-0.7,7.7-1.3c2.7-0.6,5.4-1.4,8-2.4c5.1-1.9,9.9-4.2,14.6-6.9c3.8-2.2,7.2-5,10.3-8.2
		c2-2.2,3.9-4.5,5.5-7c0.6-0.9,1-1.6,1.3-2C558.7,56.3,558.8,56,559,55.8z"/>
	<path class="st4" d="M410.3,99.6c-1.8,0.8-3.7,1.5-5.7,2c-5.3,1.5-10.9,1.9-16.4,1.3c-3.8-0.3-7.5-1.3-11-3c-4-1.9-7.3-5.2-9.1-9.3
		c-1-2.2-1.3-4.6-1.1-7c0.3-2.5,1.4-4.9,3.1-6.8c1.7-2,4.2-3.2,6.9-3.3c2.7,0,5.4,1.1,7.2,3.1c0.9,1,1.6,2.2,1.9,3.6
		c0.3,1.3,0.2,2.7-0.2,4c-0.8,2.5-2.5,4.6-4.8,6c-2.2,1.3-4.6,1.9-7.2,1.9c-2.4,0-4.7-0.4-7-1.2c-7.9-2.5-14.9-7.3-20-13.9
		c-1.9-2.5-3.5-5.3-4.7-8.2c-0.2-0.7-0.5-1.3-0.7-1.9s-0.3-1.2-0.5-1.8l-0.2-0.8c-0.1-0.3-0.1-0.6-0.1-0.8c-0.1-0.5-0.2-1-0.3-1.5
		c-0.2-1.5-0.3-3-0.2-4.5l0.1-1.2c0-0.1,0-0.3,0-0.4c0,0.1,0,0.3,0,0.4c0,0.3,0,0.7,0,1.2c0,1.5,0.1,3,0.3,4.5
		c0.1,0.5,0.2,1,0.3,1.5c0,0.3,0.1,0.5,0.1,0.8l0.2,0.8c0.2,0.6,0.3,1.2,0.5,1.8l0.7,1.9c1.2,2.9,2.8,5.6,4.7,8.1
		c5,6.5,11.9,11.2,19.8,13.7c2.3,0.7,4.6,1.1,7,1.2c2.4,0.1,4.8-0.6,6.9-1.8c2.2-1.3,3.8-3.3,4.6-5.7c0.8-2.5,0.2-5.2-1.6-7.1
		c-3.3-3.6-8.9-3.9-12.5-0.6c-0.3,0.3-0.6,0.5-0.8,0.8c-1.6,1.8-2.7,4.1-3,6.5c-0.3,2.3,0.1,4.7,1,6.8c1.8,4,4.9,7.2,8.9,9.1
		c3.4,1.6,7.1,2.7,10.9,3c5.5,0.6,11,0.2,16.3-1.2c1.9-0.5,3.3-1,4.3-1.3l1.1-0.4C410,99.7,410.2,99.7,410.3,99.6z"/>
</g>
<g id="freepik--character-2--inject-6">
	<path class="st10" d="M625.3,289.2c-1.3-0.8-2.8-1.2-4.3-1.4c-2.1-0.3-3.7-1.9-4-4c-0.3-2.9-0.2-5.7,0.2-8.6
		c0.8-8,5.5-8.5,14.1-22.5c3-4.9,5-10.3,6-16c0.5-2.9,0.5-6,0-8.9c-0.1-0.4-0.1-0.8-0.2-1.1c-3.2-17.2-19.8-28.5-37-25.3
		c-1.4,0.3-2.9,0.6-4.3,1.1c-1.7,0.6-3.4,1.2-5.2,1.9c-11.8,4.9-20.6,22.7-20.3,36s7.5,19,7,19.6s2.1,12.1,3,15.5s5.8,6.1,10.2,8.2
		s11.2-0.7,11.2-0.7c0.5,1.2,0.7,2.5,0.5,3.7c-0.3,2-6.3,1.5-10,2.2l-0.4,20.6l-1,21.2L588,351l37.3-0.3L625.3,289.2"/>
	<path class="st4" d="M617.5,232.7c0,0-25.3-7.7-21.5,21.6C596,254.3,623.1,257.7,617.5,232.7z"/>
	<path class="st4" d="M585.1,253.7c0,0,10.7-25.4-8-22.9C577.1,230.8,566.9,249.2,585.1,253.7z"/>
	<path class="st10" d="M550.9,285.6c0,0,4.6,1.5,5.7,2.7s2.8,5.7,4.7,6.3s4.7-0.5,4.7-0.5s1-5.5,3-7.9s2.5-1.9,2.5-1.9
		s5.1-0.1,4.8-3c0,0-2.1-2.5-5.7,1c-1.1,1.1-2.7,1.2-3.9,0.3c-2-1.7-2.3-5.7-2.1-8.4c0,0,2-4.7-1.1-5.7c0,0-2.7,0.2-1.2,5.7
		c0,0,2.3,5.9-0.9,8.2c0,0-2.6,1.1-5.6-4l-1-1.9c0,0-0.2-4-3.7-4.1c-0.4,0-0.8,0.3-0.9,0.7c-0.2,1.1-0.2,3.2,2.7,4.5
		c0,0,4,3,3.5,6.5c0,0-1.2,1.3-4.3-0.1l-1.1-0.4c0,0-3.8-3.3-4.4-1.8C546,283.8,548.2,285.7,550.9,285.6z"/>
	<g class="st7">
		<path class="st2" d="M620.7,210.2c1.9,0,3.6,1.3,4,3.2c0.3,2-0.8,3.9-2.7,4.6c-1.9,0.6-3.9-0.1-4.9-1.8c-0.9-1.7-0.5-3.9,1-5.1
			c1-0.7,2.2-1,3.3-0.7"/>
	</g>
	<path class="st10" d="M613.6,238.6c0.8-0.1,1.5,0.4,1.8,1.2c0.2,0.8-0.2,1.6-0.9,2c-0.7,0.3-1.6,0.1-2.1-0.6
		c-0.4-0.7-0.4-1.6,0.2-2.1c0.4-0.3,0.9-0.5,1.4-0.4"/>
	<path class="st10" d="M612.9,244.8c0.4,0,0.8,0.2,0.9,0.6c0.1,0.4-0.1,0.8-0.5,1c-0.4,0.2-0.9,0-1.1-0.4c-0.2-0.4,0-0.9,0.4-1.1
		c0.1-0.1,0.3-0.1,0.5-0.1"/>
	<g class="st7">
		<path class="st2" d="M626.7,219.6c0.8,0.3,1.2,1.2,0.9,2.1c-0.3,0.8-1.2,1.2-2.1,0.9s-1.2-1.2-0.9-2.1c0.2-0.4,0.5-0.8,0.9-0.9"/>
	</g>
	<path class="st4" d="M603.6,257.1c0.4,0.1,0.8,0.1,1.2,0.1c1.1,0,2.2-0.2,3.2-0.5c7.3-1.8,12.6-8.1,13.2-15.6
		c0.1-1.1,0.1-2.2-0.1-3.3c0-0.4-0.1-0.8-0.3-1.2c-0.1,0,0.1,1.7-0.2,4.4c-0.9,7.1-5.9,13-12.8,15.1
		C605.3,256.9,603.6,256.9,603.6,257.1z"/>
	<path class="st4" d="M596,238.3c0.2,0.2,2.3-3.6,6.8-6.2s8.8-2.4,8.8-2.7c-0.9-0.2-1.9-0.3-2.8-0.1c-4.5,0.5-8.7,2.9-11.5,6.5
		C596.7,236.6,596.3,237.4,596,238.3z"/>
	<path class="st4" d="M588.2,241.4c0.3-0.7,0.4-1.5,0.4-2.3c0.2-1.9,0.1-3.8-0.5-5.7c-0.6-1.9-1.9-3.5-3.7-4.4
		c-0.7-0.4-1.5-0.6-2.3-0.4c0.7,0.2,1.4,0.5,2.1,0.9c1.5,1,2.6,2.4,3.2,4.1c0.5,1.8,0.7,3.6,0.7,5.4
		C588,239.8,588.1,240.6,588.2,241.4z"/>
	<path class="st4" d="M576.2,250.9c-0.2,0.1,0.9,2.3,3.5,3.5s5,0.8,4.9,0.6s-2.2-0.1-4.6-1.3S576.4,250.8,576.2,250.9z"/>
	<path class="st4" d="M590.8,265.6c0,0.1,0.3,0.4,1,0.6c1,0.2,2,0.1,2.8-0.5c0.8-0.5,1.4-1.4,1.7-2.3c0.2-0.7,0-1.2-0.1-1.2
		s-0.2,0.4-0.5,1c-0.6,1.6-2.2,2.5-3.9,2.4C591.2,265.6,590.8,265.5,590.8,265.6z"/>
	<path class="st4" d="M595.2,284.5c0.9,0.2,1.8,0.3,2.7,0.1c4.5-0.5,8.5-2.9,11.1-6.5c0.6-0.7,1-1.5,1.2-2.4
		c-0.6,0.7-1.2,1.4-1.7,2.1c-1.4,1.6-3,3-4.8,4.1c-1.8,1.1-3.8,1.8-5.9,2.3C597,284.1,596.1,284.2,595.2,284.5z"/>
	<path class="st10" d="M579.5,201c-0.1,0.2,2.5,0.8,4.8,2.8s3.2,4.5,3.4,4.4s0-0.7-0.4-1.7c-0.6-1.3-1.4-2.4-2.5-3.3
		c-1-0.9-2.3-1.6-3.6-2C580.2,200.9,579.6,200.9,579.5,201z"/>
	<path class="st10" d="M577.7,199.4c1-0.5,2.1-0.1,2.7,0.8c0.5,0.9,0.1,2-0.8,2.5c-0.4,0.2-1,0.3-1.5,0.1c-1-0.4-1.6-1.5-1.2-2.5
		c0.1-0.2,0.2-0.4,0.3-0.6c0.2-0.4,0.7-0.6,1.1-0.5"/>
	<path class="st10" d="M586.5,198.3c-0.1,0.2,2.5,0.8,4.8,2.8s3.2,4.5,3.4,4.4s0-0.7-0.4-1.7c-0.6-1.3-1.4-2.4-2.5-3.3
		c-1-0.9-2.3-1.6-3.6-2C587.2,198.2,586.5,198.2,586.5,198.3z"/>
	<path class="st10" d="M584.7,196.6c1-0.5,2.2-0.1,2.7,0.8c0.5,0.9,0.1,2-0.7,2.5c-0.5,0.2-1,0.3-1.5,0.1c-1-0.4-1.6-1.5-1.2-2.5
		c0.1-0.2,0.2-0.4,0.3-0.5c0.2-0.4,0.7-0.6,1.1-0.5"/>
	<polygon class="st10" points="625.3,350.7 625.3,455.1 616.2,455.1 604,359.7 	"/>
	<polygon class="st10" points="586.9,359.1 588,351 606.8,359.2 595,412.9 595,460.1 585.4,455.1 582.6,412.9 	"/>
	<path class="st0" d="M623.7,289l0.6,16.1l8,25.3l-8.2,15.3l1.2,9.2l15.2-18.7c1.7-2,2.2-4.7,1.6-7.2l-9.7-34.2
		C632.3,294.8,630.5,289.4,623.7,289z"/>
	<path class="st0" d="M589,289.3c-2.6,1-4.4,3.2-5,5.9c-1.8,8.7-5.7,30.7-5.7,30.7l-10.7-33.5l-8.5,2.3c0,0,11.1,36.3,13.6,40.7
		c3.1,5.6,11.4,3.4,13.8-0.3s8-27.7,8-27.7L589,289.3z"/>
	<path class="st4" d="M592.1,309c1.1,1.1,2.4,2,3.8,2.7c1.5,0.5,3.1,0.8,4.6,0.8c-0.4,0.2-0.9,0.3-1.4,0.3c-2.4,0.1-4.7-0.8-6.3-2.6
		C592.3,309.5,592.1,309,592.1,309z"/>
	<path class="st4" d="M577.8,332.5c-0.2-0.1,0.4-1.5,0.5-3.4s-0.3-3.4-0.1-3.4C579.2,327.9,579,330.5,577.8,332.5z"/>
	<polygon class="st10" points="625.3,347.6 625.3,353.1 605.2,361 587.8,352.4 588.3,347.2 	"/>
	<path class="st4" d="M623.1,303.1c0.6,1,1.1,2.1,1.5,3.2c0.5,1.1,0.8,2.2,1,3.4c-0.6-1-1.1-2.1-1.5-3.2
		C623.6,305.4,623.2,304.2,623.1,303.1z"/>
	<path class="st4" d="M625.7,363.3c-0.1,0-0.3-4.7-0.3-10.5s0.1-10.5,0.3-10.5s0.3,4.7,0.3,10.5S625.8,363.3,625.7,363.3z"/>
	<path class="st4" d="M632.1,330.6c0.7-0.7,1.7-1,2.7-0.9c1,0,2,0.4,2.6,1.1c-0.9-0.3-1.8-0.5-2.7-0.6
		C633.9,330.2,633,330.4,632.1,330.6z"/>
	<path class="st4" d="M609.3,312c2.1-0.2,4.1-0.5,6.2-0.9c2-0.6,4-1.3,5.9-2.1c-0.5,0.4-1,0.8-1.5,1c-1.3,0.7-2.7,1.2-4.2,1.6
		c-1.5,0.4-2.9,0.6-4.5,0.6C610.5,312.2,609.9,312.2,609.3,312z"/>
	<path class="st10" d="M584.7,444.6l0.7,10.1c0,0-16.3,4.1-16.4,6l26,0.1l-0.5-16.5L584.7,444.6z"/>
	<path class="st10" d="M625.3,440l0.8,19.3l4.1,14.5c0,0,0.3,1.9-2.9,0s-10.3-13-10.3-13l-3.8-28.8L625.3,440z"/>
	<path class="st0" d="M608.8,284.5l-7.6,0v2.8l-12.2,2.1l1.8,41.5l-8.1,61l23.1,1.8c0,0,3.8-46.4,4.5-57.3S608.8,284.5,608.8,284.5z
		"/>
	<polygon class="st0" points="607.8,284.6 605.7,393.6 632.1,391.2 625.7,325.7 627.5,289.9 621.2,286.8 620.5,283.8 	"/>
	<path class="st4" d="M589.5,301.3c0.1,0.4,0.2,0.7,0.2,1.1c0.1,0.7,0.2,1.8,0.3,3.1c0.2,2.6,0.5,6.2,0.6,10.2s0.2,7.6,0.1,10.2
		c0,1.3-0.1,2.4-0.1,3.1c0,0.4,0,0.8-0.1,1.1c-0.1-0.4-0.1-0.8-0.1-1.1c0-0.8,0-1.9-0.1-3.1c0-2.6-0.1-6.2-0.3-10.2
		s-0.3-7.6-0.5-10.2c-0.1-1.2-0.1-2.2-0.2-3.1C589.4,302.1,589.4,301.7,589.5,301.3z"/>
	<path class="st4" d="M629.5,352.4c0,0-0.4,0.7-1.6,0.9c-0.7,0.1-1.4,0.1-2.1-0.1c-0.8-0.3-1.5-0.8-2.1-1.4c-1-1.2-1.6-2.6-1.9-4.1
		c-0.2-0.6-0.3-1.2-0.2-1.8c0.3,0.6,0.5,1.1,0.6,1.7c0.4,1.4,1,2.7,1.9,3.8c0.5,0.6,1.1,1,1.9,1.3c0.6,0.2,1.2,0.3,1.8,0.2
		C628.4,352.8,628.9,352.6,629.5,352.4z"/>
	<path class="st4" d="M622.6,348.9c0.6-1.7,1.3-3.3,2.1-4.8c0.7-1.6,1.6-3.2,2.6-4.6c-0.6,1.7-1.3,3.3-2.1,4.8
		C624.4,345.9,623.6,347.4,622.6,348.9z"/>
	<path class="st4" d="M622,367c-2.1-3.4-2.8-7.4-2-11.3c0,1.9,0.2,3.8,0.4,5.8C620.8,363.3,621.4,365.2,622,367z"/>
	<path class="st4" d="M627.9,316.5c-0.2-0.3-0.4-0.6-0.5-1c-0.3-0.6-0.7-1.5-1.1-2.7c-0.9-2.3-2.2-5.4-3.5-8.9
		c-0.7-1.6-1.3-3.3-1.7-5c-0.4-1.4-0.3-3,0.3-4.4c0.4-0.9,1.1-1.7,2-2.2c0.3-0.2,0.6-0.3,1-0.3c0,0-0.4,0.1-1,0.5
		c-0.8,0.5-1.4,1.3-1.7,2.1c-0.5,1.3-0.5,2.8-0.2,4.1c0.5,1.7,1.1,3.3,1.7,4.9c1.3,3.5,2.5,6.7,3.3,9c0.4,1.1,0.7,2.1,1,2.7
		C627.8,315.8,627.9,316.1,627.9,316.5z"/>
	<path class="st4" d="M603.8,393.5c-0.2,0-0.2-24.4,0-54.5s0.3-54.5,0.5-54.5s0.2,24.4,0,54.5S603.9,393.5,603.8,393.5z"/>
	<path class="st4" d="M606.6,285.6c0,0.1-0.1,0.2-0.1,0.3s0.1,0.3,0.2,0.3s0.2-0.1,0.2-0.3s-0.2-0.2-0.2-0.3s0.2-0.2,0.5,0.1
		c0.1,0.1,0.2,0.3,0.2,0.5c-0.1,0.3-0.3,0.5-0.5,0.5c-0.3,0.1-0.5-0.1-0.7-0.3c-0.1-0.2-0.1-0.4,0-0.6
		C606.4,285.5,606.6,285.5,606.6,285.6z"/>
	<path class="st4" d="M607,288.5c0,0.1-0.1,0.2-0.1,0.3s0.1,0.3,0.2,0.3s0.2-0.1,0.2-0.3s-0.2-0.2-0.2-0.3s0.2-0.2,0.5,0.1
		c0.2,0.3,0.2,0.7,0,0.9c-0.3,0.2-0.7,0.2-0.9,0c0,0-0.1-0.1-0.1-0.2c-0.1-0.2-0.1-0.4,0-0.6C606.7,288.4,607,288.5,607,288.5z"/>
</g>
<g id="freepik--character-1--inject-6">
	<path class="st0" d="M319.7,289c-5,0-9.4,3.6-10.3,8.5c-2,8.6-6,29.7-6,29.7l-12.9-32.4h-6.3c0,0,11.2,37.5,13.7,42
		c3.2,5.6,11.5,3.2,13.8-0.5s7.6-27.8,7.6-27.8L319.7,289z"/>
	<path class="st4" d="M303.9,340.2h-0.2c-1.1,0-2.3-0.3-3.3-0.8c-1.1-0.6-2-1.4-2.5-2.5c-2.5-4.4-13.6-41.6-13.7-42l0,0l0,0l6.3,0
		l0,0l12.8,32.3c0.3-1.5,4-21.4,6-29.6c0.4-1.9,1.3-3.6,2.5-5.1c1-1.1,2.1-1.9,3.5-2.5c1.4-0.6,2.9-1,4.4-1l0,0l0,0l-0.4,19.6
		c0,0.2-5.3,24.1-7.6,27.8c-0.8,1.2-2,2.2-3.3,2.8C307,339.7,305.5,340.1,303.9,340.2z M284.3,294.9c0.4,1.3,11.2,37.6,13.7,42
		c0.6,1.1,1.5,1.9,2.5,2.5c1,0.5,2.1,0.8,3.2,0.8h0.2c1.6,0,3.1-0.4,4.5-1.1c1.3-0.6,2.5-1.5,3.3-2.8c2.3-3.6,7.5-27.5,7.6-27.8
		l0.4-19.6h-0.1c-1.5,0-2.9,0.4-4.3,1c-1.3,0.6-2.5,1.4-3.4,2.5c-1.2,1.5-2.1,3.2-2.5,5.1c-2,8.5-6,29.5-6,29.7v0.1v-0.1l-12.9-32.4
		L284.3,294.9z"/>
	<polygon class="st10" points="313.4,360.4 314.6,352.6 332.5,360 321.5,413.9 322.3,461.1 312.5,456.2 309.1,414.1 	"/>
	<polygon class="st10" points="350.8,348.2 350.8,353.6 330.9,361.8 314.6,353.4 314.9,348.3 	"/>
	<polygon class="st10" points="350.8,351.3 348.9,408.5 352.4,455.6 343.3,455.8 336.1,411.6 329.6,360.6 	"/>
	<path class="st10" d="M360.9,228.2c-0.1-0.4-0.1-0.8-0.2-1.1c-3.5-17.1-20.3-28.2-37.4-24.7c-1.4,0.3-2.9,0.7-4.2,1.2
		c-1.7,0.6-3.4,1.3-5.2,2c-11.7,5.1-20.3,23-19.7,36.3s7.8,18.9,7.3,19.5s2.3,12.1,3.2,15.5s5.9,6,10.3,8s11.2-0.9,11.2-0.9
		s0.9,0.7,0.5,2.7s-6.1,2-9.8,2.7l-0.2,21.3l-0.9,31.4l-1.3,10l36.4-0.8l-1-61.5c-1.3-0.7-2.8-1.2-4.3-1.3c-2.1-0.2-3.8-1.9-4.1-4
		c-0.3-2.8-0.3-5.7,0.1-8.6c0.7-8,5.4-8.5,13.8-22.7c2.9-4.9,4.9-10.4,5.8-16C361.4,234.2,361.4,231.2,360.9,228.2z"/>
	<path class="st10" d="M281.1,289.9c1.1,1.3,2.9,5.7,4.8,6.2s4.7-0.5,4.7-0.5s0.9-5.5,2.9-7.9s2.5-1.9,2.5-1.9s5.1-0.2,4.8-3.1
		c0,0-2.2-2.5-5.7,1.1c-1.1,1.1-2.7,1.2-3.9,0.3c-2-1.6-2.4-5.7-2.2-8.4c0,0,2-4.8-1.2-5.6c0,0-2.7,0.2-1.1,5.7c0,0,2.4,5.8-0.8,8.2
		c0,0-2.2-3.6-3.7-2.8c-2.7,1.6-1.1,4.5-1.1,4.5s-1.5-1.6-2.7-0.1C277.2,287.1,281.1,289.9,281.1,289.9z"/>
	<g class="st7">
		<path class="st2" d="M344,210.9c1.9,0,3.6,1.3,4,3.1c0.3,1.9-0.7,3.8-2.5,4.6c-1.8,0.7-3.9,0-4.9-1.7c-0.9-1.7-0.6-3.9,0.9-5.1
			c0.9-0.7,2.2-1,3.3-0.8"/>
	</g>
	<path class="st10" d="M337.4,239.3c0.8-0.1,1.5,0.4,1.8,1.1c0.2,0.8-0.2,1.6-0.9,2c-0.7,0.3-1.6,0.1-2.1-0.5
		c-0.5-0.7-0.4-1.6,0.2-2.1c0.4-0.3,0.9-0.5,1.4-0.4"/>
	<path class="st10" d="M336.8,245.6c0.4,0,0.8,0.2,0.9,0.6c0.1,0.4-0.1,0.8-0.5,1c-0.4,0.2-0.9,0-1.1-0.4c-0.2-0.4,0-0.9,0.4-1.1
		c0.1-0.1,0.3-0.1,0.5-0.1"/>
	<g class="st7">
		<path class="st2" d="M350.2,220.1c0.8,0.3,1.3,1.2,1,2s-1.2,1.3-2,1c-0.3-0.1-0.5-0.3-0.7-0.5c-0.5-0.8-0.4-1.8,0.4-2.3
			c0.1-0.1,0.1-0.1,0.2-0.1"/>
	</g>
	<path class="st10" d="M302.7,202.3c0,0.2,2.5,0.7,4.8,2.8s3.2,4.4,3.5,4.3s0-0.7-0.4-1.6c-1.2-2.5-3.4-4.4-6.1-5.3
		C303.4,202.2,302.8,202.2,302.7,202.3z"/>
	<path class="st10" d="M300.9,200.7c1-0.5,2.2-0.2,2.7,0.8c0.5,0.9,0.2,2-0.7,2.5c-0.5,0.3-1,0.3-1.5,0.1c-1.1-0.3-1.6-1.5-1.3-2.5
		c0.1-0.2,0.2-0.4,0.3-0.6c0.2-0.4,0.7-0.6,1.1-0.5"/>
	<path class="st10" d="M309.6,199.4c0,0.2,2.5,0.7,4.8,2.8s3.2,4.4,3.5,4.3s0-0.7-0.4-1.6c-0.6-1.3-1.4-2.4-2.5-3.3
		c-1.1-0.9-2.3-1.6-3.6-2C310.3,199.3,309.6,199.3,309.6,199.4z"/>
	<path class="st10" d="M307.8,197.8c1-0.5,2.2-0.2,2.7,0.8c0.5,0.9,0.2,2-0.7,2.5c-0.4,0.2-1,0.3-1.5,0.1c-1.1-0.3-1.6-1.5-1.3-2.5
		c0.1-0.2,0.2-0.4,0.3-0.6c0.2-0.4,0.7-0.6,1.1-0.5"/>
	<polygon class="st0" points="307.3,406.8 332.9,406.4 336.4,394.6 339,406.3 352.4,404.7 351,289.7 343,285 342.8,282.3 326.1,284 
		325.2,286.2 314.6,290.3 314.5,345.6 	"/>
	<path class="st0" d="M350.6,289.5c0,0,4.6,1.1,5.2,7.9c0.7,7.8,3.6,39.7,0.7,41.9s-5.9-1.1-5.9-1.1L350.6,289.5z"/>
	<path class="st4" d="M314.5,344.7c-0.1,0,0-9.1,0.3-20.3s0.6-20.3,0.8-20.3s0,9.1-0.3,20.3S314.6,344.7,314.5,344.7z"/>
	<path class="st4" d="M303,333.8c-0.1-0.1,0.4-1.5,0.5-3.4s-0.3-3.4-0.2-3.4C304.3,329.2,304.2,331.7,303,333.8L303,333.8z"/>
	<path class="st10" d="M311.7,445.8l0.9,10.1c0,0-16.3,3-16.3,4.9h26l-0.2-16L311.7,445.8z"/>
	<path class="st10" d="M341.9,445.3l0.9,10.1c0,0-15.9,3.8-15.9,5.7h26l-1.2-16.3L341.9,445.3z"/>
	<path class="st4" d="M351.2,301.8c0.1,0,0.2,8.2,0.2,18.3s-0.2,18.3-0.3,18.3s-0.2-8.2-0.2-18.3S351,301.8,351.2,301.8z"/>
	<path class="st4" d="M342.7,285.1c-0.8,0.3-1.7,0.6-2.5,0.7c-4.1,0.9-8.4,1.3-12.6,1.1c-0.9,0-1.8-0.1-2.6-0.3
		c0.9-0.1,1.7-0.1,2.6-0.1c1.6,0,3.8-0.1,6.3-0.3s4.6-0.5,6.2-0.8C341,285.3,341.8,285.2,342.7,285.1z"/>
	<path class="st4" d="M318,364.8c0.1,0-0.1,0.4-0.6,1c-0.6,0.8-1.3,1.4-2.2,1.8c-1,0.3-2.1,0.1-2.8-0.6c-0.5-0.6-0.5-1.1-0.4-1.1
		s0.1,0.5,0.7,0.9c0.7,0.5,1.6,0.6,2.4,0.4c0.8-0.3,1.5-0.9,2.1-1.5C317.6,365.1,317.9,364.8,318,364.8z"/>
	<path class="st4" d="M346.6,359.2c-0.1,0.3-0.2,0.7-0.3,1l-1,2.6c-0.9,2.2-2.1,5.3-3.3,8.7s-2.3,6.6-3,8.9c-0.3,1-0.6,2-0.9,2.7
		c-0.1,0.3-0.2,0.7-0.4,1c0-0.3,0.1-0.7,0.2-1c0.1-0.6,0.4-1.6,0.7-2.8c0.6-2.3,1.6-5.5,2.9-8.9s2.5-6.5,3.5-8.7
		c0.5-1.1,0.9-2,1.2-2.6C346.2,359.9,346.4,359.5,346.6,359.2z"/>
</g>
</svg>
