<?xml version="1.0" encoding="utf-8"?>
<!-- Generator: Adobe Illustrator 24.0.2, SVG Export Plug-In . SVG Version: 6.00 Build 0)  -->
<svg version="1.1" id="Capa_1" xmlns="http://www.w3.org/2000/svg" xmlns:xlink="http://www.w3.org/1999/xlink" x="0px" y="0px"
	 viewBox="0 0 500 500" style="enable-background:new 0 0 500 500;" xml:space="preserve">
<style type="text/css">
	.st0{fill:none;}
	.st1{fill:#2672A7;stroke:#263238;stroke-width:1.2419;stroke-linecap:round;stroke-linejoin:round;}
	.st2{fill:#263238;stroke:#263238;stroke-width:1.2419;stroke-linecap:round;stroke-linejoin:round;}
	.st3{fill:#191F49;stroke:#FFFFFF;stroke-width:1.2419;stroke-linecap:round;stroke-linejoin:round;}
	.st4{fill:#263238;stroke:#FFFFFF;stroke-width:1.2419;stroke-linecap:round;stroke-linejoin:round;}
	.st5{fill:#18287C;stroke:#263238;stroke-width:1.2419;stroke-linecap:round;stroke-linejoin:round;}
	.st6{fill:#191F49;stroke:#263238;stroke-width:1.2419;stroke-linecap:round;stroke-linejoin:round;}
	.st7{opacity:0.6;fill:#2672A7;enable-background:new    ;}
	.st8{fill:#FFFFFF;stroke:#263238;stroke-width:1.2419;stroke-linecap:round;stroke-linejoin:round;}
	.st9{fill:none;stroke:#263238;stroke-width:1.2419;stroke-linecap:round;stroke-linejoin:round;}
	.st10{fill:#FFFFFF;stroke:#263238;stroke-width:1.2419;stroke-miterlimit:10;}
	.st11{fill:#263238;}
	.st12{fill:#92E3A9;stroke:#263238;stroke-width:1.2419;stroke-linecap:round;stroke-linejoin:round;}
	.st13{fill:#FFFFFF;}
	.st14{clip-path:url(#SVGID_2_);}
	.st15{fill:#92E3A9;}
	.st16{clip-path:url(#SVGID_4_);}
</style>
<g id="freepik--background-simple--inject-31">
	<path class="st0" d="M454.9,233.5c0,0,13.7-32.3,1.2-83.2s-69.5-53.4-118-59.6s-52.1-37.3-104.3-41S137,78.3,128.3,111.8
		s1.2,50.9-36,77S19,237.3,33.9,285.7s52.2,48.4,58.4,80.7s49.7,72,100.6,88.2s85.7-28.6,132.9-26.1s91.9-1.3,114.3-37.3
		s-9.9-70.8-3.7-95.6S450,257.1,454.9,233.5z"/>
	<path class="st0" d="M454.9,233.5c0,0,13.7-32.3,1.2-83.2s-69.5-53.4-118-59.6s-52.1-37.3-104.3-41S137,78.3,128.3,111.8
		s1.2,50.9-36,77S19,237.3,33.9,285.7s52.2,48.4,58.4,80.7s49.7,72,100.6,88.2s85.7-28.6,132.9-26.1s91.9-1.3,114.3-37.3
		s-9.9-70.8-3.7-95.6S450,257.1,454.9,233.5z"/>
</g>
<g id="freepik--Trees--inject-31">
	<path class="st1" d="M45.4,242.1c0,0-0.8-5.4,7.7-8.5s19.3-3.9,19.3-3.9s-6.7,15.6-13.1,17c-5.2,1.3-10.4,2.8-15.5,4.6L45.4,242.1z
		"/>
	<path class="st1" d="M56.3,251.4c0,0,3.1-4.5,11.5-0.9S84.5,261,84.5,261s-15.5,6.7-21.2,3.4s-14.4-7.2-14.4-7.2L56.3,251.4z"/>
	<path class="st1" d="M37.9,262c0,0,2.1-2.9,7.5-0.6c3.9,1.8,7.6,4.1,11,6.9c0,0-10.2,4.5-14,2.2c-3.1-1.7-6.3-3.3-9.5-4.7L37.9,262
		z"/>
	<path class="st1" d="M76.5,240.3c0,0,2.1-2.9,7.5-0.6c3.9,1.8,7.6,4.1,11,6.9c0,0-10.2,4.4-14,2.2c-3.1-1.7-6.3-3.3-9.5-4.7
		L76.5,240.3z"/>
	<path class="st1" d="M62.9,221c0,0-2-2.9,2-7.3c3.1-3.1,6.5-5.7,10.2-8c0,0,0.6,11.1-2.7,13.9s-7.7,7.3-7.7,7.3L62.9,221z"/>
	<path class="st1" d="M49.4,227.8c0,0-3.2-1.7-1.5-7.4c1.4-4.1,3.2-8,5.5-11.7c0,0,5.6,9.6,3.8,13.6s-3.6,10-3.6,10L49.4,227.8z"/>
	<path class="st1" d="M64.4,286.4c0,0-2.8,2.3-7.4-1.4c-3.3-2.8-6.3-6-8.8-9.5c0,0,11-1.6,14,1.5c3,3.1,7.9,7.1,7.9,7.1L64.4,286.4z
		"/>
	<path class="st1" d="M43.9,289.3c0,0-3.6,0.2-5.1-5.6c-0.9-4.2-1.4-8.6-1.3-12.9c0,0,9.8,5.4,10.3,9.6c0.5,3.5,1.2,7,2.1,10.4
		L43.9,289.3z"/>
	<path class="st1" d="M29.9,250.4c0,0-3.5-3,0.1-9.7c2.8-4.8,6.2-9.3,10-13.3c0,0,4.5,13.6,1.3,18.1s-7.1,11.6-7.1,11.6L29.9,250.4z
		"/>
	<path class="st1" d="M437.4,242.1c0,0,0.8-5.4-7.7-8.5s-19.3-3.9-19.3-3.9s6.7,15.6,13.1,17c5.2,1.3,10.4,2.8,15.5,4.6L437.4,242.1
		z"/>
	<path class="st1" d="M426.5,251.4c0,0-3.1-4.5-11.5-0.9S398.4,261,398.4,261s15.5,6.8,21.2,3.4s14.4-7.3,14.4-7.3L426.5,251.4z"/>
	<path class="st1" d="M445,262c0,0-2.1-2.9-7.5-0.6c-3.9,1.8-7.6,4.1-11,6.9c0,0,10.2,4.5,14,2.2c3.1-1.7,6.3-3.3,9.5-4.7L445,262z"
		/>
	<path class="st1" d="M406.3,240.3c0,0-2.1-2.9-7.5-0.6c-3.9,1.8-7.6,4.1-11,6.9c0,0,10.2,4.4,14,2.2c3.1-1.7,6.3-3.3,9.5-4.7
		L406.3,240.3z"/>
	<path class="st1" d="M419.9,221c0,0,2-2.9-2-7.3c-3.1-3.1-6.5-5.7-10.2-8c0,0-0.6,11.1,2.7,13.9s7.7,7.3,7.7,7.3L419.9,221z"/>
	<path class="st1" d="M433.4,227.8c0,0,3.2-1.7,1.5-7.4c-1.4-4.1-3.2-8-5.5-11.7c0,0-5.6,9.6-3.9,13.6s3.6,10,3.6,10L433.4,227.8z"
		/>
	<path class="st1" d="M418.5,286.4c0,0,2.8,2.3,7.4-1.4c3.3-2.8,6.3-6,8.8-9.5c0,0-11-1.6-14.1,1.5s-7.9,7.1-7.9,7.1L418.5,286.4z"
		/>
	<path class="st1" d="M438.9,289.3c0,0,3.6,0.2,5.1-5.6c0.9-4.2,1.4-8.6,1.3-12.9c0,0-9.8,5.4-10.3,9.6s-2,10.4-2,10.4L438.9,289.3z
		"/>
	<path class="st1" d="M452.9,250.4c0,0,3.5-3-0.1-9.7c-2.8-4.8-6.2-9.3-10-13.3c0,0-4.5,13.6-1.3,18.1s7.1,11.6,7.1,11.6
		L452.9,250.4z"/>
</g>
<g id="freepik--space-ship--inject-31">
	<ellipse class="st2" cx="252.2" cy="132.1" rx="57.8" ry="45.1"/>
	<path class="st3" d="M293,103.8c8.6,7.5,13.8,17.5,13.8,28.3c0,23.5-24.4,42.6-54.6,42.6s-54.6-19.1-54.6-42.6
		c0-14.7,9.6-27.7,24.1-35.3"/>
	<path class="st4" d="M228.6,93.7c4.4-1.6,9-2.8,13.6-3.5"/>
	<ellipse class="st5" cx="252.2" cy="142.7" rx="93.5" ry="31"/>
	<ellipse class="st5" cx="252.2" cy="153.9" rx="133.2" ry="31"/>
	<ellipse class="st6" cx="252.2" cy="162.2" rx="153.9" ry="31"/>
	<ellipse class="st5" cx="252.3" cy="162.2" rx="115.2" ry="21.7"/>
	<path class="st7" d="M303.5,162.2H200.9l-75.2,254.3c19.5,17.2,42.4,30.2,67.2,38.1c50.9,16.1,85.7-28.6,132.9-26.1
		c23,1.2,45.5,0.9,65-3.9L303.5,162.2z"/>
	<ellipse class="st2" cx="252.2" cy="162.2" rx="51.3" ry="10.3"/>
	<ellipse class="st8" cx="252.3" cy="138.8" rx="12.2" ry="2.7"/>
	<path class="st8" d="M139.1,162c0,1-3.7,1.8-8.4,1.8s-8.4-0.8-8.4-1.8s3.8-1.8,8.4-1.8C135.3,160.2,139.1,161,139.1,162z"/>
	<path class="st8" d="M384.7,162c0,1-3.8,1.8-8.4,1.8S368,163,368,162s3.7-1.8,8.4-1.8S384.7,161,384.7,162z"/>
	<ellipse class="st8" cx="327.8" cy="147.3" rx="11.4" ry="2.5"/>
	<ellipse class="st8" cx="185.8" cy="147.3" rx="11.4" ry="2.5"/>
	<ellipse class="st8" cx="327.8" cy="176.7" rx="8.4" ry="1.8"/>
	<ellipse class="st8" cx="185.8" cy="176.7" rx="8.4" ry="1.8"/>
	<line class="st9" x1="159.7" y1="300.8" x2="156.8" y2="310.5"/>
	<line class="st9" x1="184.9" y1="213.9" x2="162.6" y2="290.7"/>
	<line class="st9" x1="198.6" y1="166.8" x2="187.3" y2="205.6"/>
	<line class="st9" x1="303.5" y1="162.2" x2="351.8" y2="305.6"/>
	<line class="st9" x1="221.9" y1="174.8" x2="210.6" y2="237.5"/>
	<line class="st9" x1="289.3" y1="174.8" x2="309.4" y2="286.5"/>
	<line class="st9" x1="252.2" y1="306.5" x2="252.2" y2="319.4"/>
	<line class="st9" x1="252.2" y1="193.2" x2="252.2" y2="294.5"/>
	<path class="st10" d="M252.2,151.9c-9.8,0-19.6,0.6-29.4,1.9c2.8,5.9,15.2,10.3,30,10.3s26.9-4.3,29.9-10.1
		C272.7,152.5,262.4,151.8,252.2,151.9z"/>
</g>
<g id="freepik--Cow--inject-31">
	<path class="st11" d="M276.3,405.7c0,0,0.7,5.7,2.7,7s2.9,1.9,2.9,3.2s0,2.5-2.8,5.3s-5.9,6.2-8.6,8.6s-5.6,6.2-3.4,6.5
		s6.2,0.9,7.4-1.9s0.3-4.3,1.5-4.9c1.6-1.1,3-2.6,4-4.3c0.6-1.2,4.9-2.8,5.6-5.6s2.1-3.9,3-6.5c0.7-1.9,1.2-3.9,1.6-5.9
		C290.2,407.2,284,400.4,276.3,405.7z"/>
	<path class="st12" d="M262.8,408.7c0.8,0.9,1.6,1.6,2.5,2.4c0.6,0.4,1.2,0.8,1.9,1c0,0-0.1,1.6,0.9,2.1s2.1-0.6,2.1-0.6l2.2,0.3
		c0,0,0.4,1.3,1.5,1.3s1.5-1.3,1.5-1.3l3.6-1.2c0,0,1.6,1.3,2.4,0.1c0.5-0.6,0.4-1.4-0.1-1.9c0.9-0.6,1.6-1.6,1.9-2.7
		c0.4-1.8-0.6-2.4-1.9-2.4c-3-0.2-6-0.2-9,0C267.1,406.3,260.7,404.5,262.8,408.7z"/>
	<path class="st8" d="M302.3,380.3c0,0,1.9,4.3,7.4,10.5s8.3,16.1,8.3,19.2c0,0-3.4-9.9-6.8-14.2s-9-7.4-10.2-11.1
		S302.3,380.3,302.3,380.3z"/>
	<path class="st11" d="M318,410c0,0-1.9,1.2-2.8,5.3s5.3,6.8,5.3,6.8c-0.8-1.6-0.9-3.4-0.3-5C321.1,414.3,321.7,413.4,318,410z"/>
	<path class="st13" d="M300.7,390.5c2.1-3.7,3.3-9.2,2.2-12s-3.4-6.1-5.4-6.3s-4.9,0.3-5.7-0.3s-9-4.6-12.9-7.8s-12.3-5.1-19.1-5.1
		s-13.2,0.4-16.7,0s-5.5-1.5-9.1-0.8s-7,3.3-9.2,3.7c-1.3,0.2-2.6,0.4-3.9,0.4c0,0-5.8-2.4-6.2-2.9c0,0-0.7,0.4-1.3-0.7
		s-0.1-2-2.6-1.6c-1.3,0.1-2.4,1.2-2.5,2.5c0,0-3.3,2-4,2.5s-5.3,4.7-6.7,6.2s-1.6,1.7-4.1,4.2s-3.8,2.6-4.4,4.1
		c-0.4,1.2,0.8,2.5,1.9,3.8c0.5,0.5,1.2,0.8,1.9,0.8l0,0c1-0.2,2-0.4,3-0.8l0.8-0.3c-0.3,0.6-0.7,1-1.3,1.3c-0.5,0.2-1,0.5-1,1
		c0.9,0.1,1.8,0,2.6-0.2c1.9-0.7,3.8-1.6,5.5-2.6c2.9,0.4,5.8,0.6,8.7,0.5c2.8-0.3,6.6-2.1,7.5-2.5s5.9,1,7,2c1.7,2,3,4.4,3.6,7
		c0.5,2.6,2.2,7.5,3.8,8.6s15.6,10.9,22.4,13.2c6.9,2.2,19.3,1.3,21.5,0.7s4-1.3,4-1.3s4.6,4.7,7.5,5.4c1.5,0.3,2.9,0.7,4.3,1.2
		c-0.5,1.6-0.8,3.2-1,4.9c0,1.6-1.1,3.7-1.7,5.8s-1.2,4.9-2.4,6.5s-3,4.2-3.3,5.7s1.7,1.5,2.2,1.2s2.6-1,2.8-2.4
		c0.3-1.5,0.7-2.9,1.2-4.4c0.3-0.7,2.4-2.8,2.8-5c0.3-1.8,0.7-3.6,1.5-5.3c0.5-1,3-4.6,3.4-6.6c0.4-2.2,0.1-4.5-0.9-6.6
		c-1-2.6-2.1-6.5-2-7.1C297.1,397.4,298.8,393.9,300.7,390.5z"/>
	<g>
		<g>
			<g>
				<defs>
					<path id="SVGID_1_" d="M300.7,390.5c2.1-3.7,3.3-9.2,2.2-12s-3.4-6.1-5.4-6.3s-4.9,0.3-5.7-0.3s-9-4.6-12.9-7.8
						s-12.3-5.1-19.1-5.1s-13.2,0.4-16.7,0s-5.5-1.5-9.1-0.8s-7,3.3-9.2,3.7c-1.3,0.2-2.6,0.4-3.9,0.4c0,0-5.8-2.4-6.2-2.9
						c0,0-0.7,0.4-1.3-0.7s-0.1-2-2.6-1.6c-1.3,0.1-2.4,1.2-2.5,2.5c0,0-3.3,2-4,2.5s-5.3,4.7-6.7,6.2s-1.6,1.7-4.1,4.2
						s-3.8,2.6-4.4,4.1c-0.4,1.2,0.8,2.5,1.9,3.8c0.5,0.5,1.2,0.8,1.9,0.8l0,0c1-0.2,2-0.4,3-0.8l0.8-0.3c-0.3,0.6-0.7,1-1.3,1.3
						c-0.5,0.2-1,0.5-1,1c0.9,0.1,1.8,0,2.6-0.2c1.9-0.7,3.8-1.6,5.5-2.6c2.9,0.4,5.8,0.6,8.7,0.5c2.8-0.3,6.6-2.1,7.5-2.5
						s5.9,1,7,2c1.7,2,3,4.4,3.6,7c0.5,2.6,2.2,7.5,3.8,8.6s15.6,10.9,22.4,13.2c6.9,2.2,19.3,1.3,21.5,0.7s4-1.3,4-1.3
						s4.6,4.7,7.5,5.4c1.5,0.3,2.9,0.7,4.3,1.2c-0.5,1.6-0.8,3.2-1,4.9c0,1.6-1.1,3.7-1.7,5.8s-1.2,4.9-2.4,6.5s-3,4.2-3.3,5.7
						s1.7,1.5,2.2,1.2s2.6-1,2.8-2.4c0.3-1.5,0.7-2.9,1.2-4.4c0.3-0.7,2.4-2.8,2.8-5c0.3-1.8,0.7-3.6,1.5-5.3c0.5-1,3-4.6,3.4-6.6
						c0.4-2.2,0.1-4.5-0.9-6.6c-1-2.6-2.1-6.5-2-7.1C297.1,397.4,298.8,393.9,300.7,390.5z"/>
				</defs>
				<clipPath id="SVGID_2_">
					<use xlink:href="#SVGID_1_"  style="overflow:visible;"/>
				</clipPath>
				<g class="st14">
					<path class="st15" d="M300.7,390.5c0.9-1.6,1.5-3.3,2-5c-1.9,0.9-3.7,2-5.3,3.3c-3.4,3-4.4,6.4-3.7,11.5s-2,5-5.4,5.7
						s-6.1-2-8.1-5.1s-5.5,3.1-11.5,4s-26-3.7-29.3-7.8s-0.3-13.8-0.3-13.8c-2.6-0.8-5.1-2-7.4-3.4c-3-2-5.1-8.4-8.8-8.8
						s-5.4,2.7-9.1,4.7s-6.4,0-10.1,1.4c-1.6,0.6-4.3,1.9-7,3.1c-0.3,0.4-0.7,0.8-1.1,1c-0.5,0.2-1,0.5-1,1c0.9,0.1,1.8,0,2.6-0.2
						c1.9-0.7,3.8-1.6,5.5-2.6c2.9,0.4,5.8,0.6,8.7,0.5c2.8-0.3,6.6-2.1,7.5-2.5s5.9,1,7,2c1.7,2,3,4.4,3.6,7
						c0.5,2.6,2.2,7.5,3.8,8.6s15.6,10.9,22.4,13.2c6.8,2.3,19.2,1.3,21.5,0.7s4-1.3,4-1.3s4.6,4.7,7.5,5.4c1.5,0.3,2.9,0.7,4.3,1.2
						c-0.5,1.6-0.8,3.2-1,4.9c0,1.6-1.1,3.7-1.7,5.8s-1.2,4.9-2.4,6.5s-3,4.2-3.3,5.7s1.7,1.5,2.2,1.2s2.6-1,2.8-2.4
						c0.3-1.5,0.7-2.9,1.2-4.4c0.3-0.7,2.4-2.8,2.8-5c0.3-1.8,0.7-3.6,1.5-5.3c0.5-1,3-4.6,3.4-6.6c0.4-2.2,0.1-4.5-0.9-6.6
						c-1-2.6-2.1-6.5-2-7.1C297.1,397.4,298.8,393.9,300.7,390.5z"/>
				</g>
			</g>
		</g>
	</g>
	<path class="st9" d="M300.7,390.5c2.1-3.7,3.3-9.2,2.2-12s-3.4-6.1-5.4-6.3s-4.9,0.3-5.7-0.3s-9-4.6-12.9-7.8s-12.3-5.1-19.1-5.1
		s-13.2,0.4-16.7,0s-5.5-1.5-9.1-0.8s-7,3.3-9.2,3.7c-1.3,0.2-2.6,0.4-3.9,0.4c0,0-5.8-2.4-6.2-2.9c0,0-0.7,0.4-1.3-0.7
		s-0.1-2-2.6-1.6c-1.3,0.1-2.4,1.2-2.5,2.5c0,0-3.3,2-4,2.5s-5.3,4.7-6.7,6.2s-1.6,1.7-4.1,4.2s-3.8,2.6-4.4,4.1
		c-0.4,1.2,0.8,2.5,1.9,3.8c0.5,0.5,1.2,0.8,1.9,0.8l0,0c1-0.2,2-0.4,3-0.8l0.8-0.3c-0.3,0.6-0.7,1-1.3,1.3c-0.5,0.2-1,0.5-1,1
		c0.9,0.1,1.8,0,2.6-0.2c1.9-0.7,3.8-1.6,5.5-2.6c2.9,0.4,5.8,0.6,8.7,0.5c2.8-0.3,6.6-2.1,7.5-2.5s5.9,1,7,2c1.7,2,3,4.4,3.6,7
		c0.5,2.6,2.2,7.5,3.8,8.6s15.6,10.9,22.4,13.2c6.9,2.2,19.3,1.3,21.5,0.7s4-1.3,4-1.3s4.6,4.7,7.5,5.4c1.5,0.3,2.9,0.7,4.3,1.2
		c-0.5,1.6-0.8,3.2-1,4.9c0,1.6-1.1,3.7-1.7,5.8s-1.2,4.9-2.4,6.5s-3,4.2-3.3,5.7s1.7,1.5,2.2,1.2s2.6-1,2.8-2.4
		c0.3-1.5,0.7-2.9,1.2-4.4c0.3-0.7,2.4-2.8,2.8-5c0.3-1.8,0.7-3.6,1.5-5.3c0.5-1,3-4.6,3.4-6.6c0.4-2.2,0.1-4.5-0.9-6.6
		c-1-2.6-2.1-6.5-2-7.1C297.1,397.4,298.8,393.9,300.7,390.5z"/>
	<path class="st11" d="M248.3,399.6c3.6-0.1,7.3,0.5,10.7,1.8c5,2.1,10.4-0.6,13.4-0.9s5.9,2.1,2.4,3.6s-7.4,0.9-9.8,2.1
		c-2.2,1.1-4.7,1.6-7.1,1.5c-3,0-5.3-1.2-8.3-1.8c-2.1-0.5-4.2-1.1-6.2-1.8L248.3,399.6z"/>
	<path class="st11" d="M239.4,397.1c-1.8-3.4-4.7-5.6-2-9.2s0.7-7.2-0.4-8.5s-2.9-2.5-4.5-4.9s-1.3-3.4-0.2-4.9s1.8-4.5,0-5.8
		s-3.6-0.7-6.5-1.1c-0.6-0.1-1.1-0.3-1.6-0.6c-1.1,0.2-2.2,0.3-3.3,0.3c0,0-5.8-2.4-6.2-2.9c-0.2,0.1-0.4,0.1-0.6,0
		c-0.4,1.1-1,2-1.9,2.8c-1.6,0.9-5.4,1.8-7,2.7s-2.5,1.6-3.4,1.6c-0.6,0-0.3-1.1,0.1-2.3c-1.6,1.5-3.6,3.4-4.5,4.2s-1.2,1.3-1.9,1.9
		c0.2,0.1,1.4,0.9,0.6,2.9c-0.9,2.2-0.2,3.6,1.1,5.6s-0.9,0.5-0.7,2.7c0,0.3,0.1,0.6,0.4,0.8l0,0c1.9-0.7,3.8-1.6,5.5-2.6
		c2.9,0.4,5.8,0.6,8.7,0.5c2.8-0.3,6.6-2.1,7.5-2.5s5.9,1,7,2c1.7,2,3,4.4,3.6,7c0.5,2.6,2.2,7.5,3.8,8.6c0.7,0.5,3.7,2.5,7.4,5
		C240.4,399.1,240,398.1,239.4,397.1z"/>
	<path class="st11" d="M227.6,382.6c0,0,2.2,4.6,1.2,8.9s1.2,7.3,3.2,9.7c1.9,2.1,4.2,3.8,6.9,5c2.4,1.2,4,0.4,7.6,1
		s8.4,1.4,10.3,1.8c1.1,0.2,2.3,0.4,3.4,0.4c0,0-10.5-4.8-16.9-12.1s-10.3-13-10.5-14.5S227.6,377.4,227.6,382.6z"/>
	<path class="st11" d="M213.1,362.1c0,0,1.3-3.7,3.3-5.4s7.9-3.2,8.4-2.5s-0.8,4.6-2.8,6.9c-1.3,1.6-3.2,2.5-5.3,2.5
		c-0.7,0-1.4,0.1-2.1,0.3"/>
	<path class="st11" d="M234.9,391.5c-1.1,2.2-2.7,4.1-4.6,5.6c-3.1,2.2-9.9,4.3-9.9,7.1s-2.5,13.3-2.8,16.7s-1.9,7.1-1.9,8
		s0.6,4.3,1.9,4.6s4.3-2.5,5.3-4.9s-0.9-8.4-0.9-8.4c0.6-1,1-2.2,0.9-3.4c0-2.2,0.9-9,1.9-10.2s5.9-3.4,9.6-3.7s10.8-5,10.8-5"/>
	<path class="st11" d="M256.2,362.1c-3.7,1.1-7.7,1.2-11.4,0.3c-5.9-1.5-7.1,4.9-3.7,9.9s4.6,10.5,9.3,10.5s5.6-6.5,9.3-8.3
		s5.3-7.4,3.7-9.6S256.2,362.1,256.2,362.1z"/>
	<path class="st11" d="M299.7,373.4c-0.6-0.6-1.3-1.1-2.1-1.3c-2-0.3-4.9,0.3-5.7-0.3s-9-4.6-12.9-7.8c-1.3-1-2.6-1.7-4.1-2.3
		c0.9,2.5,0.5,5.3-1,7.4c-3.4,4.9-15.5,8.3-12.4,15.1s7.7,12,11.7,13s10.8-3.7,14.5-5.9s3.4-7.7,3.1-9.9s2.2-2.2,5-2.2
		C298.2,379.4,299.5,378,299.7,373.4z"/>
	<path class="st11" d="M193.6,378.1c0,0-1.4-2.2-2-1.1S190,382.1,193.6,378.1z"/>
	<path class="st13" d="M210.1,368.9c0,0.9-0.7,1.6-1.6,1.6s-1.6-0.7-1.6-1.6s0.7-1.6,1.6-1.6l0,0C209.4,367.3,210.1,368,210.1,368.9
		z"/>
	<path class="st11" d="M209.5,368.9c0,0.6-0.4,1-1,1s-1-0.4-1-1s0.4-1,1-1S209.5,368.3,209.5,368.9z"/>
	<path class="st13" d="M240.1,388.7c0,0-3.4,5.3-3.4,9s-4,8.6-6.5,11.7s-3.1,6.8-1.9,8s4.3,9,5.9,12.1s1.9,5.3,3.1,5.6
		s3.7,3.7,5.6,3.4s2.5-2.5,0.6-5.3s-2.2,0.9-4.6-3.1s-2.2-8.6-3.7-10.5s-2.8-2.8-2.2-4.3s6.5-8,8.6-9.9s8.3-3.7,12-6.5"/>
	<g>
		<g>
			<g>
				<defs>
					<path id="SVGID_3_" d="M240.1,388.7c0,0-3.4,5.3-3.4,9s-4,8.6-6.5,11.7s-3.1,6.8-1.9,8s4.3,9,5.9,12.1s1.9,5.3,3.1,5.6
						s3.7,3.7,5.6,3.4s2.5-2.5,0.6-5.3s-2.2,0.9-4.6-3.1s-2.2-8.6-3.7-10.5s-2.8-2.8-2.2-4.3s6.5-8,8.6-9.9s8.3-3.7,12-6.5"/>
				</defs>
				<clipPath id="SVGID_4_">
					<use xlink:href="#SVGID_3_"  style="overflow:visible;"/>
				</clipPath>
				<g class="st16">
					<path class="st15" d="M241.7,405.4c1.6-1.3,5.2-2.7,8.5-4.4v-0.1c0,0-8.4,2.7-10.8,2.4c-1.7-0.2-2-3.1-3-3.8
						c-0.9,3.4-4.1,7.3-6.2,9.9c-2.5,3.1-3.1,6.8-1.9,8s4.3,9,5.9,12.1s1.9,5.3,3.1,5.6s3.7,3.7,5.6,3.4s2.5-2.5,0.6-5.3
						s-2.2,0.9-4.6-3.1s-2.2-8.6-3.7-10.5s-2.8-2.8-2.2-4.3S239.5,407.2,241.7,405.4z"/>
				</g>
			</g>
		</g>
	</g>
	<path class="st9" d="M240.1,388.7c0,0-3.4,5.3-3.4,9s-4,8.6-6.5,11.7s-3.1,6.8-1.9,8s4.3,9,5.9,12.1s1.9,5.3,3.1,5.6
		s3.7,3.7,5.6,3.4s2.5-2.5,0.6-5.3s-2.2,0.9-4.6-3.1s-2.2-8.6-3.7-10.5s-2.8-2.8-2.2-4.3s6.5-8,8.6-9.9s8.3-3.7,12-6.5"/>
	<path class="st8" d="M223.4,358.2c0,0-3.8-0.2-5,1.2s-1,3.2,0,3.2S223.2,361,223.4,358.2z"/>
	<circle class="st13" cx="208.1" cy="368.5" r="0.5"/>
	<path class="st11" d="M300,391.8c-2.7,0.5-9.7,2.4-10.5,6.4c-0.9,4.5,6.4,8.4,8,10c-1-2.6-2.1-6.5-2-7.1
		C296.8,397.9,298.3,394.8,300,391.8z"/>
</g>
</svg>
